<svg width="263" height="223" xmlns="http://www.w3.org/2000/svg"><defs><linearGradient x1="50%" y1="0%" x2="50%" y2="50%" id="a"><stop stop-color="#052138" offset="0%"/><stop stop-color="#3B749E" offset="100%"/></linearGradient><linearGradient x1="50%" y1="0%" x2="50%" y2="59.804%" id="b"><stop stop-color="#79B9D3" offset="0%"/><stop stop-color="#87CEEB" offset="100%"/></linearGradient><linearGradient x1="50%" y1="0%" x2="50%" y2="100%" id="c"><stop stop-color="#5D6AA4" offset="0%"/><stop stop-color="#ACE0EA" offset="100%"/></linearGradient><linearGradient x1="0%" y1="50%" y2="50%" id="d"><stop stop-color="#FAE8C7" offset="0%"/><stop stop-color="#F2C68B" offset="100%"/></linearGradient><linearGradient x1="50%" y1="0%" x2="50%" y2="100%" id="e"><stop stop-color="#C3736D" offset="0%"/><stop stop-color="#D99568" offset="100%"/></linearGradient><linearGradient x1="40.641%" y1="50%" x2="0%" y2="50%" id="f"><stop stop-color="#DCA474" offset="0%"/><stop stop-color="#DA896D" offset="100%"/></linearGradient></defs><g fill="none" fill-rule="evenodd"><g fill-rule="nonzero"><path fill="#00CED1" d="M188.795 15.394L31.26 157.238l7.784 8.645L196.58 24.039zM223.49 53.928L65.957 195.77l7.784 8.645L231.274 62.573z"/><path fill="#00CED1" d="M174.078 40.215l32.531 36.13 6.67-6.006-32.532-36.13zM132.37 77.768l32.531 36.13 6.67-6.005-32.532-36.13zM95.288 112.98l32.053 35.599 6.669-6.005-32.053-35.598zM55.705 148.62l32.053 35.599 6.669-6.005-32.053-35.598z"/><path fill="url(#a)" d="M0 0h46.544v40.012H0z" transform="scale(-1 1) rotate(42 -143.544 -207.714)"/><g transform="scale(-1 1) rotate(42 -161.386 -194.97)"><ellipse fill="#224E6F" cx="2.185" cy="2.549" rx="2.185" ry="2.549"/><path d="M.765 4.485c.468-.467.765-1.161.765-1.936 0-.776-.297-1.47-.765-1.937C1.147.23 1.643 0 2.185 0 3.392 0 4.37 1.141 4.37 2.549c0 1.407-.978 2.548-2.185 2.548-.542 0-1.038-.23-1.42-.612z" fill="#E0FFFF"/></g><path fill="#4F89BA" d="M166.402 57.557l-.114 2.182 2.545.133.115-2.182z"/><path fill="#DBF0F0" d="M175.117 60.511l.057 2.373 2.354.306-.057-2.373zM152.576 68.46l.058 2.374 2.354.305-.058-2.373z"/><path fill="#061C2E" d="M152.226 81.98l-.114 2.182 2.546.134.114-2.182z"/><path fill="#4F89BA" d="M148.759 75.844l-.115 2.182 2.546.133.114-2.182z"/><path fill="#061C2E" d="M181.36 65.351l-.115 2.182 2.546.134.114-2.182z"/><path fill="#4F89BA" d="M174.158 69.435l-.115 2.182 2.546.134.114-2.182zM171.923 52.585l-.114 2.182 2.546.133.114-2.182z"/><path fill="#061C2E" d="M178.948 54.835l-.114 2.182 2.545.133.114-2.182z"/><path fill="#DBF0F0" d="M176.285 47.113l.058 2.374 2.354.305-.058-2.373z"/><path fill="#4F89BA" d="M183.95 55.817L183.834 58l2.545.134.115-2.182zM185.883 60.25l-.115 2.182 2.546.134.114-2.182z"/><path fill="#061C2E" d="M168.222 64.149l-.114 2.182 2.545.133.115-2.182z"/><path fill="#DBF0F0" d="M166.94 72.331l.058 2.373 2.354.306-.057-2.374z"/><path fill="#4F89BA" d="M159.826 66.907l-.114 2.182 2.545.134.115-2.182zM160.947 78.93l-.114 2.181 2.545.134.115-2.182zM159.762 84.797l-.114 2.182 2.545.134.115-2.182z"/><path fill="#061C2E" d="M156.205 74.969l-.114 2.182 2.545.133.115-2.182z"/><g><path d="M197.597 66.84l-10.548-1.769-.39 5.973-8.593-4.46 1.072 5.61-10.403-3.608.526 10.295-9.411-.952.089 6.71-8.204.596 16.386 18.198 34.474-31.04c-1.12-1.246-1.96-2.179-2.521-2.801l-2.477-2.752z" fill="#215178"/><path fill="#29608C" d="M162.804 89.43l2.518 4.592 1.786-1.608zM162.844 84.25l2.518 4.592 1.786-1.608z"/><path fill="#29608C" d="M165.524 85.267l2.517 4.592 1.787-1.609zM169.698 86.31l2.517 4.592 1.786-1.608zM163.779 95.411l2.517 4.593 1.787-1.609zM163.194 91.823l2.517 4.592 1.787-1.608z"/><path fill="#23567E" d="M194.072 68.478l2.429 4.33 1.623-1.463zM187.471 76.822l2.429 4.33 1.624-1.463z"/><path fill="#29608C" d="M164.233 86.772l2.616 15.478 12.504-11.259z"/><path fill="#275B85" d="M181.113 74.66l3.273 4.94 1.3-1.17z"/><path fill="#275B85" d="M178.791 78.122l-.746 13.703 14.453-13.013z"/><path fill="#275B85" d="M175.195 83.76l3.272 4.942 1.3-1.17zM176.104 80.199l3.273 4.94 1.299-1.17z"/><path fill="#275B85" d="M176.753 79.614l3.273 4.94 1.3-1.169zM179.814 75.829l3.273 4.94 1.3-1.169z"/><path fill="#23567E" d="M187.552 73.32l2.429 4.33 1.623-1.463z"/><path fill="#23567E" d="M187.512 71.642l2.428 4.33 1.624-1.463zM189.753 68.252l2.428 4.33 1.624-1.462zM192.749 68.64l2.428 4.33 1.624-1.462z"/><path fill="#23567E" d="M189.38 69.96l.69 11.381 10.555-9.504z"/></g><g fill="#E5FAFA"><path d="M188.714 19.045l-2.656 2.392 4.225 4.693 2.657-2.392zM182.87 24.307l-2.657 2.392 4.226 4.693L187.096 29zM177.025 29.57l-2.656 2.392 4.225 4.693 2.657-2.393zM171.181 34.832l-2.656 2.392 4.225 4.693 2.657-2.393zM165.336 40.094l-2.656 2.392 4.225 4.693 2.657-2.392zM159.492 45.356l-2.656 2.392 4.225 4.693 2.657-2.392zM153.648 50.619l-2.657 2.392 4.225 4.693 2.657-2.392zM147.803 55.881l-2.656 2.392 4.225 4.693 2.657-2.392zM141.959 61.144l-2.657 2.392 4.225 4.693 2.657-2.392zM136.115 66.406l-2.657 2.392 4.225 4.693 2.657-2.392zM130.27 71.668l-2.656 2.392 4.225 4.693 2.657-2.392zM124.426 76.93l-2.657 2.393 4.225 4.693 2.657-2.393zM118.581 82.193l-2.656 2.392 4.225 4.693 2.657-2.392zM112.737 87.455l-2.657 2.392 4.225 4.693 2.657-2.392zM106.893 92.717l-2.657 2.392 4.225 4.693 2.657-2.392zM101.048 97.98l-2.657 2.392 4.226 4.693 2.656-2.392zM95.204 103.242l-2.657 2.392 4.225 4.693 2.657-2.392zM89.36 108.504l-2.657 2.392 4.225 4.693 2.657-2.392zM83.515 113.767l-2.657 2.392 4.226 4.693 2.656-2.392zM77.67 119.029l-2.656 2.392 4.225 4.693 2.657-2.392zM71.826 124.292l-2.657 2.392 4.226 4.693 2.656-2.392zM65.982 129.554l-2.657 2.392 4.226 4.693 2.656-2.392zM60.137 134.816l-2.657 2.392 4.226 4.693 2.656-2.392zM54.293 140.078l-2.657 2.393 4.226 4.692 2.656-2.392zM48.448 145.341l-2.657 2.392 4.226 4.693 2.657-2.392zM42.604 150.603l-2.657 2.392 4.226 4.693 2.656-2.392zM36.76 155.865l-2.657 2.392 4.226 4.693 2.656-2.392z"/></g><g fill="#E5FAFA"><path d="M223.41 57.578l-2.657 2.393 4.226 4.692 2.657-2.392zM217.566 62.84l-2.657 2.393 4.226 4.693 2.657-2.393zM211.721 68.103l-2.657 2.392 4.226 4.693 2.657-2.392zM205.877 73.365l-2.657 2.392 4.226 4.693 2.657-2.392zM200.032 78.628l-2.656 2.392 4.225 4.693 2.657-2.392zM194.188 83.89l-2.657 2.392 4.226 4.693 2.657-2.392zM188.343 89.153l-2.656 2.392 4.225 4.693 2.657-2.392zM182.5 94.415l-2.657 2.392 4.225 4.693 2.657-2.392zM176.654 99.677l-2.656 2.393 4.225 4.692 2.657-2.392zM170.81 104.94l-2.656 2.392 4.225 4.693 2.657-2.393zM164.966 110.201l-2.656 2.393 4.225 4.693 2.657-2.393zM159.121 115.464l-2.656 2.392 4.225 4.693 2.657-2.392zM153.277 120.726l-2.656 2.392 4.225 4.693 2.657-2.392zM147.433 125.989l-2.657 2.392 4.225 4.693 2.657-2.392zM141.588 131.251l-2.656 2.392 4.225 4.693 2.657-2.392zM135.744 136.514l-2.657 2.392 4.225 4.693 2.657-2.392zM129.9 141.776l-2.657 2.392 4.225 4.693 2.657-2.392zM124.055 147.038l-2.656 2.392 4.225 4.693 2.657-2.392zM118.21 152.3l-2.656 2.393 4.225 4.693 2.657-2.393zM112.366 157.563l-2.656 2.392 4.225 4.693 2.657-2.393zM106.522 162.825l-2.657 2.392 4.225 4.693 2.657-2.392zM100.678 168.087l-2.657 2.392 4.225 4.693 2.657-2.392zM94.833 173.35l-2.657 2.392 4.226 4.693 2.656-2.392zM88.989 178.612l-2.657 2.392 4.225 4.693 2.657-2.392zM83.144 183.875l-2.657 2.392 4.226 4.693 2.656-2.392zM77.3 189.137l-2.657 2.392 4.226 4.693 2.656-2.392zM71.456 194.399l-2.657 2.392 4.225 4.693 2.657-2.392z"/></g><g><path fill="url(#a)" d="M.918 0h23.593v40.219H.918z" transform="scale(-1 1) rotate(42 -223.338 .156)"/><g transform="scale(-1 1) rotate(42 -238.45 5.878)"><ellipse fill="#224E6F" cx="1.072" cy="2.493" rx="1.072" ry="2.493"/><path d="M.375 4.387c.23-.457.376-1.136.376-1.894S.605 1.056.375.598C.563.225.806 0 1.072 0c.593 0 1.073 1.116 1.073 2.493 0 1.377-.48 2.493-1.073 2.493-.266 0-.51-.226-.697-.599z" fill="#E0FFFF"/></g><path fill="#4F89BA" d="M53.117 159.762l-.058 1.11 2.569.134.058-1.11z"/><path fill="#DBF0F0" d="M60.317 163.664l.633 1.877 1.801.826-.633-1.877zM45.78 164.292l.634 1.877 1.8.826-.633-1.877z"/><path fill="#061C2E" d="M48.813 175.406l-.058 1.11 2.568.135.058-1.11z"/><path fill="#4F89BA" d="M44.744 169.725l-.058 1.109 2.568.135.058-1.11z"/><path fill="#061C2E" d="M66.02 169.606l-.059 1.11 2.569.134.058-1.11z"/><path fill="#4F89BA" d="M61.759 171.02l-.058 1.109 2.568.134.058-1.11zM55.925 157.234l-.058 1.11 2.568.134.059-1.11z"/><path fill="#061C2E" d="M61.632 160.75l-.058 1.109 2.568.134.059-1.11z"/><path fill="#DBF0F0" d="M57.837 153.436l.633 1.878 1.8.826-.632-1.878z"/><path fill="#4F89BA" d="M65.543 162.767l-.059 1.109 2.569.135.058-1.11zM68.063 166.728l-.059 1.11 2.569.134.058-1.11z"/><path fill="#061C2E" d="M56.093 165.39l-.058 1.11 2.568.134.058-1.109z"/><path fill="#DBF0F0" d="M57.27 170.908l.633 1.877 1.8.826-.632-1.878z"/><path fill="#4F89BA" d="M50.628 165.466l-.058 1.11 2.568.134.058-1.11zM54.443 175.183l-.058 1.11 2.568.135.058-1.11zM55.037 179.495l-.059 1.11 2.569.134.058-1.11z"/><path fill="#061C2E" d="M49.982 170.893l-.058 1.11 2.568.134.059-1.11z"/><g><path d="M78.42 174.353l-8.15-4.01 1.2 4.581-7.39-5.631 2.18 4.661-8.502-5.414 2.946 8.194-7.116-3.087 1.735 5.277-5.848-1.574 16.504 18.33 17.475-15.735-2.54-2.82-2.495-2.772z" fill="#215178"/><path fill="#29608C" d="M58.609 183.39l2.982 4.223.906-.815zM57.35 179.343l2.982 4.223.906-.816z"/><path fill="#29608C" d="M59.561 180.806l2.983 4.222.905-.815zM62.871 182.661l2.983 4.223.905-.815zM60.81 188.317l2.982 4.223.905-.815zM59.49 185.36l2.982 4.224.905-.816z"/><path fill="#23567E" d="M76.25 174.759l2.853 3.995.823-.741zM73.502 179.652l2.852 3.995.823-.741z"/><path fill="#29608C" d="M58.992 181.663l5.763 12.774 6.338-5.708z"/><path fill="#275B85" d="M68.317 176.376l3.621 4.684.659-.593z"/><path fill="#275B85" d="M67.481 178.51l2.864 10.548 7.326-6.597z"/><path fill="#275B85" d="M66.255 182.032l3.621 4.684.659-.593zM66.033 179.468l3.622 4.684.658-.593z"/><path fill="#275B85" d="M66.363 179.172l3.62 4.684.66-.593zM67.658 176.97l3.621 4.683.659-.593z"/><path fill="#23567E" d="M72.69 176.929l2.852 3.995.823-.741z"/><path fill="#23567E" d="M72.243 175.605l2.852 3.995.823-.742zM73.037 173.507l2.852 3.996.823-.742zM75.324 174.557l2.852 3.995.823-.74z"/><path fill="#23567E" d="M73.19 174.752l3.336 9.086 5.35-4.818z"/></g></g><g><path fill="url(#b)" d="M.304 0h41.602v40.012H.304z" transform="scale(-1 1) rotate(42 -171.427 -135.076)"/><g fill="#FFF"><path d="M118.188 113.123c-2.14.574-3.354 3.025-1.905 3.359.401.092.647-.346 1.04-.322l1.006.39c3.228.194-.915-.386.75-.693.34-.063 1.382.642 1.208-.295-.671-3.63-.076 1.613-1.007-.834-.559-1.471.846-1.633-1.358-1.604M118.85 102.546c-1.19-1.321-3.26.188-3.707.843-.178.26.599.68.615 1.04.018.413-.524.56-.526.968-.002.384 1.41 2.5 1.615 2.728.06.067.162.036.234.022l.915-.69c.497-.097 1.166.365 1.628.195.737-.27 1.56-1.019 1.818-1.393.127-.183-.263-.549-.212-.78.131-.588.616-.973.736-1.566.03-.153-.17-.362-.326-.46-1.25-.8-.41-2.291-2.983-1.279M129.13 96.428c-.479.378-.78 1.554-1.437 1.134l.16.393c-.251-.16-.357-.537-.614-.682-.994-.56-3.794.678-4.06 1.632-.044.16.168.37.308.517l.932.398c.24.252.057.74.338.934 2.367 1.644.547-.282 1.732-.106.489.072 1.008.638 1.465.58.47-.059.518-.806.98-.888l.847.123c.178-.032.311-.176.377-.34.086-.213.002-.507.057-.738l1.332-1.115c.21-.887-1.535-2.091-2.083-1.803l-.334-.04zM136.234 86.36c-2.366-2.721-1.742-.224-3.294.07-3.027.572-.248-1.394-2.375-.283-2.053 1.072-.368.709-.712 1.814-.158.507-1.6 1.172-.994 2.126.128.202.463.278.526.495.098.338-.212.605-.11.943.405 1.337.75.165 1.224.397.318.155 1.06 1.542 1.675 1.37.553-.156.769-.825 1.303-1.016 4.595-1.647-3.2 2.444 1.608.141.23-.11.422-.293.538-.523.174-.346.02-.93.313-1.167 1.429-1.155 1.256.825 2.121-.835.658-1.262-.574-.196-.531-1.3.051-1.3 1.147-1.578-.798-2.153l-.494-.078z"/></g><g fill="#2E8B57"><path d="M151.06 100.652l3.18 4.1.565-.508z"/><path d="M151.06 100.652l3.18 4.1.565-.508zM144.437 99.65l3.18 4.1.565-.507z"/><path d="M145 99.143l3.182 4.1.564-.508zM147.635 100.253l3.181 4.1.564-.508z"/><path d="M147.974 99.948l3.18 4.1.565-.508zM150.495 101.16l3.181 4.1.564-.508z"/><path d="M156.41 104.64l-9.629-2.769.822 5.224-7.281-2.654 1.197 7.426-7.228-1.997-.35 6.605-5.347-1.474.742 6.918-7.487-2.802 1.05 4.257-9.438-4.032 16.59 18.425 31.03-27.94-2.152-2.39z"/><path d="M141.871 103.836l2.371 4.561 1.918-1.727zM145.06 102.84l2.371 4.561 1.918-1.727zM146.292 100.123l2.371 4.562 1.918-1.727zM150.023 101.317l2.371 4.562 1.919-1.727z"/><path d="M139.124 102.827l2.371 4.562 1.918-1.727z"/><path d="M139.02 104.527l2.372 4.562 1.918-1.727z"/><path d="M138.938 106.477l2.37 4.562 1.919-1.727zM132.045 111.076l2.371 4.561 1.919-1.727zM135.225 108.48l2.371 4.562 1.918-1.727z"/><path d="M137.726 109.443l2.371 4.562 1.918-1.727zM129.091 113.468l2.371 4.561 1.918-1.727zM126.987 118.845l2.37 4.562 1.919-1.727zM127.173 115.195l2.371 4.562 1.918-1.728zM132.28 112.471l2.371 4.562 1.919-1.727zM123.337 118.649l2.37 4.562 1.919-1.727zM120.62 119.488l2.37 4.562 1.919-1.727z"/><path d="M121.43 119.027l2.37 4.562 1.919-1.727zM117.79 120.43l2.37 4.561 1.918-1.727z"/><path d="M114.376 118.681l2.371 4.562 1.918-1.727z"/></g></g><g><path fill="url(#c)" d="M1.271 0H45.32v36.016H1.271z" transform="scale(-1 1) rotate(42 -196.399 -70.021)"/><g transform="scale(-1 1) rotate(42 -235.722 -46.509)" fill="url(#d)"><ellipse opacity=".5" cx="9.744" cy="9.489" rx="9.744" ry="9.489"/><ellipse cx="9.845" cy="9.489" rx="8.627" ry="8.617"/></g><g transform="scale(-1 1) rotate(42 -199.4 -67.684)"><ellipse fill="#F2CB89" cx="18.018" cy="7.09" rx="1" ry="1"/><ellipse fill="#F2CB89" cx="21.469" cy="11.242" rx="1" ry="1"/><ellipse fill="#F2CB89" cx="11.116" cy="15.176" rx="1" ry="1"/><ellipse fill="#F2CB89" cx="4.012" cy="13.209" rx="1" ry="1"/><ellipse fill="#F2CB89" cx="4.012" cy="6.434" rx="1" ry="1"/><ellipse fill="#F2CB89" cx="38.926" cy="7.964" rx="1" ry="1"/><ellipse fill="#F2CB89" cx="31.01" cy="11.242" rx="1" ry="1"/><ellipse fill="#F2CB89" cx="35.07" cy="13.209" rx="1" ry="1"/><ellipse fill="#F2CB89" cx="25.123" cy="16.487" rx="1" ry="1"/><ellipse fill="#F2CB89" cx=".967" cy=".971" rx="1" ry="1"/><ellipse fill="#F2CB89" cx="35.07" cy="3.375" rx="1" ry="1"/><ellipse fill="#97C6CB" cx="8.579" cy="6.434" rx="1" ry="1"/><ellipse fill="#97C6CB" cx="13.654" cy="2.5" rx="1" ry="1"/><ellipse fill="#97C6CB" cx="18.12" cy="2.937" rx="1" ry="1"/><ellipse fill="#97C6CB" cx="23.194" cy="5.779" rx="1" ry="1"/><ellipse fill="#97C6CB" cx="26.239" cy="11.679" rx="1" ry="1"/><ellipse fill="#97C6CB" cx="36.592" cy="9.712" rx="1" ry="1"/><ellipse fill="#97C6CB" cx="40.652" cy="13.209" rx="1" ry="1"/><ellipse fill="#97C6CB" cx="40.246" cy="2.5" rx="1" ry="1"/><ellipse fill="#97C6CB" cx="7.158" cy=".971" rx="1" ry="1"/><ellipse fill="#97C6CB" cx="13.857" cy="9.931" rx="1" ry="1"/><ellipse fill="#97C6CB" cx="8.579" cy="11.679" rx="1" ry="1"/><ellipse fill="#97C6CB" cx="6.346" cy="16.487" rx="1" ry="1"/><ellipse fill="#97C6CB" cx="1.271" cy="9.494" rx="1" ry="1"/><ellipse fill="#97C6CB" cx="32.735" cy="7.308" rx="1" ry="1"/><ellipse fill="#97C6CB" cx="27.457" cy="2.937" rx="1" ry="1"/></g><g transform="scale(-1 1) rotate(42 -230.109 -82.961)"><path d="M14.737 9.03c1.524.19 2.82-2.293 5.514-3.964.535-.332 1.66-.332 3.376 0 1.974 2.431 3.77 4.193 5.391 5.284 1.621 1.092 2.44 1.092 2.456 0-.886-.215-.552-.655 1.002-1.32 1.553-.663 3.472-1.284 5.756-1.862l6.96 3.182v4.152H1.374c.01-2.634.01-4.458 0-5.471-.018-1.769-.24-3.295 0-3.965.12-.333.008-.869 0-1.47-.008-.606.086-1.278 0-1.89C1.25.812.916 0 1.374.004c4.578 3.379 8.961 8.48 13.363 9.026z" fill="#DB9C72"/><ellipse fill="url(#e)" transform="rotate(45 6.76 7.988)" cx="6.759" cy="7.988" rx="5.731" ry="3.141"/><ellipse fill="url(#f)" cx="21.633" cy="10.599" rx="5.488" ry="3.346"/></g><path d="M109.438 143.944c-2.085.646-2.8 4.94-2.144 12.882-4.336-1.279-7.461-1.324-9.375-.136-2.872 1.782-1.393 6.412-5.208 9.186-2.543 1.849-5.371 2.105-8.484.768l6.234 6.923 28.065-25.269c.277-.95.777-1.4 1.502-1.353-4.63-1.572-8.156-3.755-10.59-3z" fill="#D79D73"/></g><g><path fill="url(#c)" d="M1.916 0h18.17v36.016H1.916z" transform="scale(-1 1) rotate(42 -128.847 -246.106)"/><g transform="scale(-1 1) rotate(42 -161.277 -240.55)" fill="url(#d)"><ellipse opacity=".5" cx="4.019" cy="9.489" rx="4.019" ry="9.489"/><ellipse cx="4.061" cy="9.489" rx="3.559" ry="8.617"/></g><g transform="scale(-1 1) rotate(42 -131.693 -244.172)"><ellipse fill="#F2CB89" cx="7.762" cy="7.09" rx="1" ry="1"/><ellipse fill="#F2CB89" cx="9.185" cy="11.242" rx="1" ry="1"/><ellipse fill="#F2CB89" cx="4.915" cy="15.176" rx="1" ry="1"/><ellipse fill="#F2CB89" cx="1.984" cy="13.209" rx="1" ry="1"/><ellipse fill="#F2CB89" cx="1.984" cy="6.434" rx="1" ry="1"/><ellipse fill="#F2CB89" cx="16.387" cy="7.964" rx="1" ry="1"/><ellipse fill="#F2CB89" cx="13.121" cy="11.242" rx="1" ry="1"/><ellipse fill="#F2CB89" cx="14.796" cy="13.209" rx="1" ry="1"/><ellipse fill="#F2CB89" cx="10.693" cy="16.487" rx="1" ry="1"/><ellipse fill="#F2CB89" cx=".728" cy=".971" rx="1" ry="1"/><ellipse fill="#F2CB89" cx="14.796" cy="3.375" rx="1" ry="1"/><ellipse fill="#97C6CB" cx="3.868" cy="6.434" rx="1" ry="1"/><ellipse fill="#97C6CB" cx="5.962" cy="2.5" rx="1" ry="1"/><ellipse fill="#97C6CB" cx="7.804" cy="2.937" rx="1" ry="1"/><ellipse fill="#97C6CB" cx="9.897" cy="5.779" rx="1" ry="1"/><ellipse fill="#97C6CB" cx="11.153" cy="11.679" rx="1" ry="1"/><ellipse fill="#97C6CB" cx="15.424" cy="9.712" rx="1" ry="1"/><ellipse fill="#97C6CB" cx="17.098" cy="13.209" rx="1" ry="1"/><ellipse fill="#97C6CB" cx="16.931" cy="2.5" rx="1" ry="1"/><ellipse fill="#97C6CB" cx="3.282" cy=".971" rx="1" ry="1"/><ellipse fill="#97C6CB" cx="6.045" cy="9.931" rx="1" ry="1"/><ellipse fill="#97C6CB" cx="3.868" cy="11.679" rx="1" ry="1"/><ellipse fill="#97C6CB" cx="2.947" cy="16.487" rx="1" ry="1"/><ellipse fill="#97C6CB" cx=".854" cy="9.494" rx="1" ry="1"/><ellipse fill="#97C6CB" cx="13.833" cy="7.308" rx="1" ry="1"/><ellipse fill="#97C6CB" cx="11.656" cy="2.937" rx="1" ry="1"/></g><g transform="scale(-1 1) rotate(42 -162.557 -259.046)"><path d="M7.47 9.03c.63.19 1.164-2.293 2.275-3.964.22-.332.685-.332 1.393 0 .814 2.431 1.555 4.193 2.223 5.284.669 1.092 1.007 1.092 1.013 0-.365-.215-.227-.655.414-1.32.64-.663 1.432-1.284 2.374-1.862l2.87 3.182v4.152H1.959c.004-2.634.004-4.458 0-5.471-.007-1.769-.099-3.295 0-3.965.05-.333.004-.869 0-1.47-.003-.606.035-1.278 0-1.89C1.907.812 1.77 0 1.958.004 3.847 3.384 5.655 8.485 7.47 9.03z" fill="#DB9C72"/><ellipse fill="url(#e)" transform="rotate(45 4.18 7.988)" cx="4.18" cy="7.988" rx="2.364" ry="3.141"/><ellipse fill="url(#f)" cx="10.315" cy="10.599" rx="2.264" ry="3.346"/></g><path d="M213.852 49.966c-1.22-.133-.448 2.823 2.315 8.867-3.303-2.21-5.427-3.155-6.373-2.84-1.42.475.933 4.32-.834 5.249-1.178.62-3.014-.018-5.507-1.913l6.234 6.924 11.576-10.424c-.09-.619.116-.805.62-.558-3.587-2.51-6.607-5.15-8.031-5.305z" fill="#D79D73"/></g><g><path fill="#00CED1" d="M85.582 13.687L240.616 158.26l-7.934 8.507L77.65 22.195zM50.22 51.61l155.033 144.57-7.934 8.509L42.286 60.117z"/><path fill="#00CED1" d="M99.863 38.76L66.706 74.318l-6.563-6.12L93.3 32.64zM140.91 77.037l-33.157 35.556-6.563-6.12 33.156-35.557zM177.371 112.89l-32.669 35.034-6.563-6.12 32.67-35.033zM216.326 149.216l-32.669 35.033-6.563-6.12 32.67-35.033z"/><path fill="url(#a)" d="M0 0h46.544v40.012H0z" transform="rotate(43 -3.29 145.051)"/><g transform="rotate(43 -20.845 157.36)"><ellipse fill="#224E6F" cx="2.185" cy="2.549" rx="2.185" ry="2.549"/><path d="M.765 4.485c.468-.467.765-1.161.765-1.936 0-.776-.297-1.47-.765-1.937C1.147.23 1.643 0 2.185 0 3.392 0 4.37 1.141 4.37 2.549c0 1.407-.978 2.548-2.185 2.548-.542 0-1.038-.23-1.42-.612z" fill="#E0FFFF"/></g><path fill="#4F89BA" d="M107.235 56.234l.077 2.184-2.548.089-.076-2.184z"/><path fill="#DBF0F0" d="M98.47 59.036l-.098 2.372-2.36.264.1-2.372zM120.869 67.378l-.1 2.372-2.358.264.099-2.372z"/><path fill="#061C2E" d="M120.983 80.901l.076 2.184-2.547.089-.077-2.184z"/><path fill="#4F89BA" d="M124.557 74.826l.076 2.184-2.547.089-.077-2.184z"/><path fill="#061C2E" d="M92.144 63.766l.076 2.184-2.547.089-.076-2.184z"/><path fill="#4F89BA" d="M99.274 67.976l.076 2.183-2.547.09-.077-2.185zM101.802 51.167l.076 2.183-2.547.09-.077-2.184z"/><path fill="#061C2E" d="M94.74 53.294l.075 2.183-2.547.09-.076-2.184z"/><path fill="#DBF0F0" d="M97.536 45.62l-.099 2.372-2.359.264.1-2.372z"/><path fill="#4F89BA" d="M89.721 54.189l.077 2.183-2.548.09-.076-2.184zM87.71 58.587l.077 2.184-2.547.089-.077-2.184z"/><path fill="#061C2E" d="M105.3 62.794l.077 2.183-2.547.09-.077-2.184z"/><path fill="#DBF0F0" d="M106.44 70.997l-.1 2.372-2.359.264.099-2.372z"/><path fill="#4F89BA" d="M113.647 65.698l.076 2.184-2.547.089-.076-2.184zM112.317 77.699l.076 2.183-2.548.09-.076-2.184zM113.4 83.586l.075 2.184-2.547.089-.076-2.184z"/><path fill="#061C2E" d="M117.127 73.821l.076 2.184-2.547.09-.077-2.185z"/><g><path d="M75.884 64.972l10.576-1.585.287 5.979 8.669-4.31-1.17 5.592 10.464-3.427-.705 10.284 9.426-.788-.206 6.708 8.192.74-16.7 17.909-33.928-31.638 2.57-2.756c.57-.613 1.412-1.515 2.525-2.708z" fill="#215178"/><path fill="#29608C" d="M110.277 88.166l-2.598 4.547-1.758-1.64zM110.327 82.986l-2.597 4.547-1.758-1.64z"/><path fill="#29608C" d="M107.63 83.955l-2.597 4.548-1.758-1.64zM103.439 84.925l-2.598 4.548-1.758-1.64zM109.198 94.129l-2.598 4.547-1.758-1.639zM109.845 90.551l-2.597 4.547-1.758-1.639z"/><path fill="#23567E" d="M79.379 66.67l-2.504 4.287-1.598-1.49zM85.833 75.129l-2.503 4.286-1.598-1.49z"/><path fill="#29608C" d="M108.894 85.483l-2.885 15.43-12.306-11.476z"/><path fill="#275B85" d="M92.228 73.077l-3.359 4.883-1.278-1.192z"/><path fill="#275B85" d="M94.49 76.58l.506 13.714-14.223-13.263z"/><path fill="#275B85" d="M97.987 82.28l-3.358 4.884-1.279-1.192zM97.14 78.703l-3.358 4.883-1.279-1.192z"/><path fill="#275B85" d="M96.5 78.107l-3.358 4.883-1.278-1.192zM93.506 74.27l-3.358 4.883-1.279-1.193z"/><path fill="#23567E" d="M85.813 71.626l-2.503 4.286-1.598-1.49z"/><path fill="#23567E" d="M85.883 69.949l-2.503 4.286-1.598-1.49zM83.702 66.52l-2.504 4.287-1.598-1.49zM80.7 66.857l-2.504 4.286-1.598-1.49z"/><path fill="#23567E" d="M84.045 68.235l-.89 11.367-10.387-9.687z"/></g><g fill="#E5FAFA"><path d="M85.599 17.339l2.614 2.438-4.306 4.618-2.615-2.438zM91.35 22.702l2.615 2.438-4.307 4.618-2.615-2.438zM97.102 28.066l2.615 2.438-4.307 4.618-2.615-2.438zM102.854 33.429l2.614 2.438-4.307 4.619-2.614-2.439zM108.606 38.793l2.614 2.438-4.307 4.619-2.614-2.439zM114.357 44.156l2.615 2.438-4.307 4.619-2.615-2.438zM120.11 49.52l2.614 2.438-4.307 4.619-2.615-2.438zM125.86 54.883l2.615 2.438-4.307 4.619-2.614-2.438zM131.613 60.247l2.614 2.438-4.307 4.619-2.614-2.438zM137.364 65.61l2.615 2.439-4.307 4.618-2.615-2.438zM143.115 70.974l2.615 2.438-4.307 4.618-2.614-2.438zM148.867 76.338l2.615 2.438-4.307 4.618-2.614-2.438zM154.619 81.7l2.614 2.439-4.306 4.618-2.615-2.438zM160.37 87.065l2.615 2.438-4.306 4.618-2.615-2.438zM166.122 92.428l2.615 2.438-4.307 4.619-2.615-2.439zM171.874 97.792l2.615 2.438-4.307 4.619-2.614-2.439zM177.626 103.155l2.614 2.438-4.306 4.619-2.615-2.438zM183.377 108.518l2.615 2.439-4.307 4.618-2.615-2.438zM189.13 113.882l2.614 2.438-4.307 4.619-2.615-2.438zM194.88 119.246l2.615 2.438-4.307 4.618-2.614-2.438zM200.633 124.61l2.614 2.438-4.307 4.618-2.614-2.438zM206.384 129.973l2.615 2.438-4.307 4.618-2.615-2.438zM212.136 135.337l2.615 2.438-4.307 4.618-2.615-2.438zM217.887 140.7l2.615 2.438-4.307 4.618-2.614-2.438zM223.64 146.064l2.614 2.438-4.307 4.618-2.614-2.438zM229.391 151.427l2.615 2.438-4.307 4.619-2.615-2.439zM235.142 156.79l2.615 2.438-4.307 4.619-2.615-2.438z"/></g><g fill="#E5FAFA"><path d="M50.236 55.26L52.85 57.7l-4.307 4.618-2.614-2.438zM55.987 60.624l2.615 2.438-4.307 4.619-2.615-2.438zM61.74 65.988l2.614 2.438-4.307 4.619-2.615-2.438zM67.49 71.351l2.615 2.438-4.307 4.619-2.614-2.438zM73.243 76.715l2.614 2.438-4.307 4.619-2.614-2.438zM78.994 82.078l2.615 2.439-4.307 4.618-2.615-2.438zM84.746 87.442l2.615 2.438-4.307 4.619-2.615-2.438zM90.497 92.806l2.615 2.438-4.307 4.618-2.614-2.438zM96.25 98.17l2.614 2.438-4.307 4.618-2.614-2.438zM102 103.533l2.615 2.438-4.306 4.618-2.615-2.438zM107.752 108.896l2.615 2.438-4.307 4.619-2.615-2.439zM113.504 114.26l2.615 2.438-4.307 4.618-2.614-2.438zM119.256 119.623l2.614 2.438-4.306 4.619-2.615-2.438zM125.008 124.987l2.614 2.438-4.306 4.619-2.615-2.439zM130.76 130.35l2.614 2.438-4.307 4.619-2.615-2.438zM136.511 135.714l2.615 2.438-4.307 4.619-2.615-2.438zM142.263 141.077l2.614 2.439-4.307 4.618-2.614-2.438zM148.014 146.44l2.615 2.439-4.307 4.618-2.615-2.438zM153.766 151.805l2.615 2.438-4.307 4.618-2.615-2.438zM159.517 157.168l2.615 2.438-4.307 4.618-2.614-2.438zM165.27 162.532l2.614 2.438-4.307 4.618-2.614-2.438zM171.02 167.895l2.616 2.438-4.307 4.619-2.615-2.439zM176.773 173.259l2.615 2.438-4.307 4.618-2.615-2.438zM182.524 178.622l2.615 2.438-4.307 4.619-2.614-2.438zM188.277 183.986l2.614 2.438-4.307 4.619-2.614-2.439zM194.028 189.35l2.614 2.437-4.306 4.619-2.615-2.438zM199.78 194.712l2.614 2.439-4.307 4.618-2.615-2.438z"/></g><g><path fill="url(#a)" d="M.918 0h23.593v40.219H.918z" transform="rotate(43 -83.085 347.62)"/><g transform="rotate(43 -97.91 353.085)"><ellipse fill="#224E6F" cx="1.072" cy="2.493" rx="1.072" ry="2.493"/><path d="M.375 4.387c.23-.457.376-1.136.376-1.894S.605 1.056.375.598C.563.225.806 0 1.072 0c.593 0 1.073 1.116 1.073 2.493 0 1.377-.48 2.493-1.073 2.493-.266 0-.51-.226-.697-.599z" fill="#E0FFFF"/></g><path fill="#4F89BA" d="M218.72 160.401l.038 1.11-2.57.09-.04-1.11z"/><path fill="#DBF0F0" d="M211.453 164.177l-.666 1.866-1.815.794.666-1.866zM225.976 165.058l-.666 1.866-1.815.795.666-1.866z"/><path fill="#061C2E" d="M222.75 176.118l.039 1.11-2.57.09-.04-1.11z"/><path fill="#4F89BA" d="M226.918 170.508l.038 1.11-2.57.09-.039-1.11z"/><path fill="#061C2E" d="M205.647 170.018l.04 1.11-2.571.09-.039-1.11z"/><path fill="#4F89BA" d="M209.883 171.506l.038 1.11-2.57.09-.039-1.11zM215.956 157.825l.039 1.11-2.57.09-.04-1.11z"/><path fill="#061C2E" d="M210.188 161.24l.04 1.11-2.571.09-.039-1.11z"/><path fill="#DBF0F0" d="M214.111 153.994l-.666 1.866-1.815.794.666-1.866z"/><path fill="#4F89BA" d="M206.244 163.188l.038 1.11-2.57.09-.039-1.11zM203.655 167.105l.039 1.11-2.57.09-.04-1.11z"/><path fill="#061C2E" d="M215.646 165.977l.039 1.11-2.57.09-.04-1.11z"/><path fill="#DBF0F0" d="M214.373 171.472l-.666 1.866-1.815.795.666-1.866z"/><path fill="#4F89BA" d="M221.109 166.147l.039 1.11-2.57.09-.04-1.11zM217.125 175.797l.039 1.11-2.57.09-.04-1.11zM216.456 180.097l.039 1.11-2.57.09-.04-1.11z"/><path fill="#061C2E" d="M221.66 171.585l.039 1.11-2.57.09-.04-1.11z"/><g><path d="M193.167 174.548l8.218-3.866-1.28 4.558 7.487-5.501-2.26 4.623 8.594-5.265-3.088 8.14 7.168-2.962-1.826 5.247 5.874-1.472-16.821 18.039-17.198-16.038 2.588-2.775 2.544-2.728z" fill="#215178"/><path fill="#29608C" d="M212.816 183.93l-3.056 4.17-.89-.831zM214.146 179.905l-3.056 4.17-.891-.831z"/><path fill="#29608C" d="M211.91 181.329l-3.057 4.17-.89-.83zM208.567 183.126l-3.056 4.17-.89-.83zM210.53 188.817l-3.056 4.17-.891-.83zM211.902 185.885l-3.056 4.17-.891-.831z"/><path fill="#23567E" d="M195.328 174.992l-2.922 3.945-.81-.756zM197.99 179.932l-2.92 3.945-.81-.756z"/><path fill="#29608C" d="M212.463 182.197l-5.984 12.67-6.238-5.817z"/><path fill="#275B85" d="M203.232 176.747l-3.702 4.62-.648-.604z"/><path fill="#275B85" d="M204.03 178.896l-3.047 10.495-7.21-6.723z"/><path fill="#275B85" d="M205.195 182.438l-3.703 4.62-.648-.604zM205.461 179.879l-3.702 4.62-.648-.604z"/><path fill="#275B85" d="M205.137 179.577l-3.702 4.62-.648-.604zM203.88 177.352l-3.702 4.62-.648-.605z"/><path fill="#23567E" d="M198.85 177.224l-2.921 3.944-.81-.755z"/><path fill="#23567E" d="M199.32 175.907l-2.92 3.945-.81-.755zM198.562 173.797l-2.92 3.944-.81-.755zM196.258 174.806l-2.921 3.945-.81-.755z"/><path fill="#23567E" d="M198.389 175.039l-3.495 9.025-5.265-4.91z"/></g></g><g><path fill="url(#b)" d="M.304 0h41.602v40.012H.304z" transform="rotate(43 -31.174 215.836)"/><g fill="#FFF"><path d="M154.473 112.633c2.13.611 3.3 3.084 1.845 3.392-.402.085-.64-.357-1.033-.34l-1.013.373c-3.231.137.92-.37-.737-.706-.34-.07-1.394.617-1.204-.317.735-3.618.048 1.615 1.021-.816.585-1.461-.817-1.647 1.386-1.58M153.995 102.047c1.213-1.3 3.256.244 3.692.907.173.263-.61.67-.633 1.029-.025.413.514.569.509.977-.005.384-1.453 2.475-1.663 2.7-.061.066-.162.033-.234.018l-.902-.707c-.496-.105-1.173.345-1.632.168-.732-.283-1.541-1.047-1.794-1.425-.123-.185.274-.544.226-.777-.12-.59-.599-.983-.708-1.578-.028-.154.177-.359.334-.455 1.263-.778.45-2.283 3.004-1.226M143.823 95.75c.473.386.753 1.568 1.418 1.16l-.168.389c.255-.156.367-.531.626-.671 1.004-.543 3.782.744 4.031 1.702.042.16-.174.367-.316.512l-.94.382c-.244.247-.07.738-.353.928-2.396 1.602-.543-.292-1.731-.137-.49.064-1.018.621-1.474.556-.47-.068-.504-.816-.965-.906l-.85.108c-.176-.035-.307-.182-.37-.346-.083-.215.007-.507-.044-.739l-1.312-1.138c-.196-.891 1.57-2.065 2.114-1.767l.334-.033zM136.896 85.56c2.414-2.68 1.746-.194 3.292.126 3.017.626.273-1.389 2.38-.24 2.034 1.108.356.714.68 1.825.149.51 1.58 1.2.958 2.143-.132.2-.469.27-.535.487-.104.336.2.608.093.944-.429 1.33-.753.152-1.23.376-.321.15-1.086 1.523-1.7 1.34-.55-.165-.754-.838-1.284-1.039-4.566-1.726 3.156 2.5-1.61.114a1.167 1.167 0 0 1-.53-.533c-.168-.349-.003-.93-.292-1.172-1.408-1.18-1.27.803-2.106-.872-.636-1.273.578-.185.553-1.29-.028-1.301-1.118-1.598.836-2.14l.495-.069z"/></g><g fill="#2E8B57"><path d="M121.824 99.59l-3.252 4.045-.556-.518z"/><path d="M121.824 99.59l-3.252 4.045-.556-.518zM128.463 98.705l-3.252 4.044-.556-.518zM127.908 98.187l-3.253 4.044-.555-.518zM125.254 99.251l-3.252 4.044-.555-.517z"/><path d="M124.921 98.94l-3.252 4.045-.555-.518zM122.379 100.108l-3.252 4.045-.555-.518z"/><path d="M116.404 103.484l9.676-2.6-.913 5.209 7.326-2.527-1.326 7.404 7.261-1.87.235 6.61 5.373-1.38-.863 6.904 7.534-2.671-1.125 4.238 9.508-3.867-16.91 18.132-30.537-28.477 2.194-2.352z"/><path d="M130.955 102.934l-2.45 4.52-1.888-1.76zM127.784 101.882l-2.45 4.52-1.888-1.76zM126.6 99.145l-2.45 4.52-1.888-1.76zM122.848 100.274l-2.45 4.52-1.888-1.761z"/><path d="M133.72 101.973l-2.451 4.52-1.888-1.76z"/><path d="M133.793 103.675l-2.45 4.52-1.888-1.76z"/><path d="M133.842 105.626l-2.45 4.52-1.888-1.76zM140.653 110.344l-2.45 4.52-1.888-1.76zM137.519 107.694l-2.45 4.52-1.888-1.76z"/><path d="M135.001 108.613l-2.45 4.52-1.887-1.76zM143.565 112.788l-2.45 4.52-1.888-1.76zM145.575 118.2l-2.45 4.52-1.888-1.76zM145.452 114.548l-2.45 4.52-1.887-1.76zM140.393 111.736l-2.45 4.52-1.887-1.76zM149.228 118.069l-2.45 4.52-1.888-1.76zM151.93 118.955l-2.45 4.52-1.888-1.76z"/><path d="M151.128 118.48l-2.45 4.52-1.888-1.76zM154.744 119.946l-2.45 4.52-1.888-1.76z"/><path d="M158.187 118.257l-2.45 4.52-1.888-1.76z"/></g></g><g><path fill="url(#c)" d="M1.271 0H45.32v36.016H1.271z" transform="rotate(43 -56.146 279.232)"/><g transform="rotate(43 -94.795 301.887)" fill="url(#d)"><ellipse opacity=".5" cx="9.744" cy="9.489" rx="9.744" ry="9.489"/><ellipse cx="9.845" cy="9.489" rx="8.627" ry="8.617"/></g><g transform="rotate(43 -59.1 281.491)"><ellipse fill="#F2CB89" cx="18.018" cy="7.09" rx="1" ry="1"/><ellipse fill="#F2CB89" cx="21.469" cy="11.242" rx="1" ry="1"/><ellipse fill="#F2CB89" cx="11.116" cy="15.176" rx="1" ry="1"/><ellipse fill="#F2CB89" cx="4.012" cy="13.209" rx="1" ry="1"/><ellipse fill="#F2CB89" cx="4.012" cy="6.434" rx="1" ry="1"/><ellipse fill="#F2CB89" cx="38.926" cy="7.964" rx="1" ry="1"/><ellipse fill="#F2CB89" cx="31.01" cy="11.242" rx="1" ry="1"/><ellipse fill="#F2CB89" cx="35.07" cy="13.209" rx="1" ry="1"/><ellipse fill="#F2CB89" cx="25.123" cy="16.487" rx="1" ry="1"/><ellipse fill="#F2CB89" cx=".967" cy=".971" rx="1" ry="1"/><ellipse fill="#F2CB89" cx="35.07" cy="3.375" rx="1" ry="1"/><ellipse fill="#97C6CB" cx="8.579" cy="6.434" rx="1" ry="1"/><ellipse fill="#97C6CB" cx="13.654" cy="2.5" rx="1" ry="1"/><ellipse fill="#97C6CB" cx="18.12" cy="2.937" rx="1" ry="1"/><ellipse fill="#97C6CB" cx="23.194" cy="5.779" rx="1" ry="1"/><ellipse fill="#97C6CB" cx="26.239" cy="11.679" rx="1" ry="1"/><ellipse fill="#97C6CB" cx="36.592" cy="9.712" rx="1" ry="1"/><ellipse fill="#97C6CB" cx="40.652" cy="13.209" rx="1" ry="1"/><ellipse fill="#97C6CB" cx="40.246" cy="2.5" rx="1" ry="1"/><ellipse fill="#97C6CB" cx="7.158" cy=".971" rx="1" ry="1"/><ellipse fill="#97C6CB" cx="13.857" cy="9.931" rx="1" ry="1"/><ellipse fill="#97C6CB" cx="8.579" cy="11.679" rx="1" ry="1"/><ellipse fill="#97C6CB" cx="6.346" cy="16.487" rx="1" ry="1"/><ellipse fill="#97C6CB" cx="1.271" cy="9.494" rx="1" ry="1"/><ellipse fill="#97C6CB" cx="32.735" cy="7.308" rx="1" ry="1"/><ellipse fill="#97C6CB" cx="27.457" cy="2.937" rx="1" ry="1"/></g><g transform="rotate(43 -88.996 266.292)"><path d="M14.737 9.03c1.524.19 2.82-2.293 5.514-3.964.535-.332 1.66-.332 3.376 0 1.974 2.431 3.77 4.193 5.391 5.284 1.621 1.092 2.44 1.092 2.456 0-.886-.215-.552-.655 1.002-1.32 1.553-.663 3.472-1.284 5.756-1.862l6.96 3.182v4.152H1.374c.01-2.634.01-4.458 0-5.471-.018-1.769-.24-3.295 0-3.965.12-.333.008-.869 0-1.47-.008-.606.086-1.278 0-1.89C1.25.812.916 0 1.374.004c4.578 3.379 8.961 8.48 13.363 9.026z" fill="#DB9C72"/><ellipse fill="url(#e)" transform="rotate(45 6.76 7.988)" cx="6.759" cy="7.988" rx="5.731" ry="3.141"/><ellipse fill="url(#f)" cx="21.633" cy="10.599" rx="5.488" ry="3.346"/></g><path d="M162.684 143.603c2.072.682 2.712 4.988 1.918 12.917 4.358-1.203 7.483-1.193 9.376.028 2.84 1.832 1.28 6.435 5.047 9.275 2.51 1.893 5.334 2.198 8.469.916l-6.354 6.813-27.619-25.755c-.26-.954-.753-1.414-1.479-1.379 4.657-1.49 8.22-3.612 10.642-2.815z" fill="#D79D73"/></g><g><path fill="url(#c)" d="M1.916 0h18.17v36.016H1.916z" transform="rotate(43 11.407 107.638)"/><g transform="rotate(43 -20.35 112.794)" fill="url(#d)"><ellipse opacity=".5" cx="4.019" cy="9.489" rx="4.019" ry="9.489"/><ellipse cx="4.061" cy="9.489" rx="3.559" ry="8.617"/></g><g transform="rotate(43 8.608 109.505)"><ellipse fill="#F2CB89" cx="7.762" cy="7.09" rx="1" ry="1"/><ellipse fill="#F2CB89" cx="9.185" cy="11.242" rx="1" ry="1"/><ellipse fill="#F2CB89" cx="4.915" cy="15.176" rx="1" ry="1"/><ellipse fill="#F2CB89" cx="1.984" cy="13.209" rx="1" ry="1"/><ellipse fill="#F2CB89" cx="1.984" cy="6.434" rx="1" ry="1"/><ellipse fill="#F2CB89" cx="16.387" cy="7.964" rx="1" ry="1"/><ellipse fill="#F2CB89" cx="13.121" cy="11.242" rx="1" ry="1"/><ellipse fill="#F2CB89" cx="14.796" cy="13.209" rx="1" ry="1"/><ellipse fill="#F2CB89" cx="10.693" cy="16.487" rx="1" ry="1"/><ellipse fill="#F2CB89" cx=".728" cy=".971" rx="1" ry="1"/><ellipse fill="#F2CB89" cx="14.796" cy="3.375" rx="1" ry="1"/><ellipse fill="#97C6CB" cx="3.868" cy="6.434" rx="1" ry="1"/><ellipse fill="#97C6CB" cx="5.962" cy="2.5" rx="1" ry="1"/><ellipse fill="#97C6CB" cx="7.804" cy="2.937" rx="1" ry="1"/><ellipse fill="#97C6CB" cx="9.897" cy="5.779" rx="1" ry="1"/><ellipse fill="#97C6CB" cx="11.153" cy="11.679" rx="1" ry="1"/><ellipse fill="#97C6CB" cx="15.424" cy="9.712" rx="1" ry="1"/><ellipse fill="#97C6CB" cx="17.098" cy="13.209" rx="1" ry="1"/><ellipse fill="#97C6CB" cx="16.931" cy="2.5" rx="1" ry="1"/><ellipse fill="#97C6CB" cx="3.282" cy=".971" rx="1" ry="1"/><ellipse fill="#97C6CB" cx="6.045" cy="9.931" rx="1" ry="1"/><ellipse fill="#97C6CB" cx="3.868" cy="11.679" rx="1" ry="1"/><ellipse fill="#97C6CB" cx="2.947" cy="16.487" rx="1" ry="1"/><ellipse fill="#97C6CB" cx=".854" cy="9.494" rx="1" ry="1"/><ellipse fill="#97C6CB" cx="13.833" cy="7.308" rx="1" ry="1"/><ellipse fill="#97C6CB" cx="11.656" cy="2.937" rx="1" ry="1"/></g><g transform="rotate(43 -21.443 94.698)"><path d="M7.47 9.03c.63.19 1.164-2.293 2.275-3.964.22-.332.685-.332 1.393 0 .814 2.431 1.555 4.193 2.223 5.284.669 1.092 1.007 1.092 1.013 0-.365-.215-.227-.655.414-1.32.64-.663 1.432-1.284 2.374-1.862l2.87 3.182v4.152H1.959c.004-2.634.004-4.458 0-5.471-.007-1.769-.099-3.295 0-3.965.05-.333.004-.869 0-1.47-.003-.606.035-1.278 0-1.89C1.907.812 1.77 0 1.958.004 3.847 3.384 5.655 8.485 7.47 9.03z" fill="#DB9C72"/><ellipse fill="url(#e)" transform="rotate(45 4.18 7.988)" cx="4.18" cy="7.988" rx="2.364" ry="3.141"/><ellipse fill="url(#f)" cx="10.315" cy="10.599" rx="2.264" ry="3.346"/></g><path d="M59.925 47.816c1.222-.111.399 2.83-2.47 8.826 3.341-2.151 5.482-3.06 6.423-2.728 1.41.5-1.008 4.302.742 5.262 1.167.64 3.014.035 5.54-1.816l-6.354 6.814L52.413 53.55c.101-.618-.102-.807-.61-.57 3.63-2.447 6.695-5.033 8.122-5.164z" fill="#D79D73"/></g></g><g fill="#00CED1" fill-opacity=".12"><ellipse cx="131.5" cy="111.233" rx="124.21" ry="105.365"/><ellipse cx="131.5" cy="111.5" rx="131.5" ry="111.5"/></g></g><g transform="translate(106 79)"><ellipse fill="#FFF" fill-rule="nonzero" cx="30.5" cy="29.5" rx="30.5" ry="29.5"/><circle fill="#D8D8D8" fill-rule="nonzero" cx="16" cy="26" r="3"/><circle fill="#D8D8D8" fill-rule="nonzero" cx="48" cy="26" r="3"/><path d="M20 45c6.982-6.667 14.649-6.667 23 0" stroke="#D8D8D8"/></g><text transform="translate(116.013 16.842)" fill="#F5A623" font-family="Apple-Chancery, Apple Chancery" font-size="10"><tspan x="1" y="14">Not Found</tspan></text><text transform="rotate(-2 2409.324 -752.76)" fill="#F5A623" font-family="Apple-Chancery, Apple Chancery" font-size="10"><tspan x="-.36" y="25.843">Not Found</tspan></text><text transform="rotate(1 -5632.793 11123.804)" style="mix-blend-mode:exclusion" fill="#F5A623" font-family="Apple-Chancery, Apple Chancery" font-size="10"><tspan x="0" y="11">Not Found</tspan></text><text transform="rotate(-1 10359.68 -6327.046)" style="mix-blend-mode:exclusion" fill="#F5A623" font-family="Apple-Chancery, Apple Chancery" font-size="10"><tspan x="0" y="11">Not Found</tspan></text></g></svg>
