<svg width="200" height="177" xmlns="http://www.w3.org/2000/svg"><defs><linearGradient x1="50%" y1="0%" x2="50%" y2="50%" id="a"><stop stop-color="#052138" offset="0%"/><stop stop-color="#3B749E" offset="100%"/></linearGradient><linearGradient x1="50%" y1="0%" x2="50%" y2="59.804%" id="b"><stop stop-color="#79B9D3" offset="0%"/><stop stop-color="#87CEEB" offset="100%"/></linearGradient><linearGradient x1="50%" y1="0%" x2="50%" y2="100%" id="c"><stop stop-color="#5D6AA4" offset="0%"/><stop stop-color="#ACE0EA" offset="100%"/></linearGradient><linearGradient x1="0%" y1="50%" y2="50%" id="d"><stop stop-color="#FAE8C7" offset="0%"/><stop stop-color="#F2C68B" offset="100%"/></linearGradient><linearGradient x1="50%" y1="0%" x2="50%" y2="100%" id="e"><stop stop-color="#C3736D" offset="0%"/><stop stop-color="#D99568" offset="100%"/></linearGradient><linearGradient x1="40.641%" y1="50%" x2="0%" y2="50%" id="f"><stop stop-color="#DCA474" offset="0%"/><stop stop-color="#DA896D" offset="100%"/></linearGradient></defs><g fill="none" fill-rule="evenodd"><g fill-rule="nonzero"><path fill="#00CED1" d="M142.855 14.66L23.058 122.525l6.179 6.863L149.034 21.522zM170.394 45.244L50.597 153.11l6.179 6.862L176.573 52.107z"/><path fill="#00CED1" d="M132.286 34.448l24.739 27.475 5.293-4.766-24.738-27.475zM100.569 63.006l24.738 27.475 5.294-4.767-24.739-27.474zM72.392 89.808l24.374 27.07 5.293-4.765-24.374-27.07zM42.29 116.91l24.375 27.071 5.293-4.766-24.374-27.07z"/><path fill="url(#a)" d="M0 0h35.394v31.758H0z" transform="scale(-1 1) rotate(42 -113.152 -155.744)"/><g transform="scale(-1 1) rotate(42 -127.095 -146.196)"><ellipse fill="#224E6F" cx="1.662" cy="2.023" rx="1.662" ry="2.023"/><path d="M.582 3.56c.356-.37.581-.922.581-1.537C1.163 1.408.938.857.582.486.872.183 1.249 0 1.662 0c.917 0 1.661.906 1.661 2.023S2.58 4.046 1.662 4.046c-.413 0-.79-.183-1.08-.486z" fill="#E0FFFF"/></g><path fill="#4F89BA" d="M126.186 47.166l-.087 1.66 2.02.105.087-1.66z"/><path fill="#DBF0F0" d="M132.997 49.572l.083 1.849 1.83.277-.083-1.85zM115.651 55.39l.084 1.85 1.83.276-.083-1.849z"/><path fill="#061C2E" d="M115.6 65.953l-.088 1.66 2.02.106.087-1.66z"/><path fill="#4F89BA" d="M112.809 61.116l-.087 1.66 2.02.106.087-1.66z"/><path fill="#061C2E" d="M137.913 53.484l-.087 1.66 2.02.105.087-1.66z"/><path fill="#4F89BA" d="M132.396 56.545l-.087 1.66 2.02.106.087-1.66zM130.385 43.385l-.087 1.66 2.02.106.087-1.66z"/><path fill="#061C2E" d="M135.868 45.253l-.087 1.66 2.02.106.087-1.66z"/><path fill="#DBF0F0" d="M133.68 39.157l.085 1.849 1.83.276-.084-1.849z"/><path fill="#4F89BA" d="M139.763 46.102l-.087 1.66 2.02.106.087-1.66zM141.334 49.586l-.087 1.66 2.02.106.088-1.66z"/><path fill="#061C2E" d="M127.706 52.33l-.087 1.66 2.02.106.087-1.66z"/><path fill="#DBF0F0" d="M126.853 58.642l.084 1.85 1.83.276-.084-1.849z"/><path fill="#4F89BA" d="M121.242 54.34l-.087 1.659 2.02.106.087-1.66zM122.31 63.721l-.087 1.66 2.02.106.087-1.66zM121.488 68.272l-.087 1.66 2.02.106.088-1.66z"/><path fill="#061C2E" d="M118.568 60.558l-.087 1.66 2.02.106.087-1.66z"/><g><path d="M150.531 54.873l-8.207-1.552-.204 4.645-6.736-3.616.924 4.388-8.126-2.983.578 8.026-7.313-.896.18 5.227-6.35.329 13.005 14.444L154.5 59.279l-2.002-2.222-1.966-2.184z" fill="#215178"/><path fill="#29608C" d="M123.928 71.891l2.028 3.618 1.359-1.223zM123.874 67.857l2.028 3.618 1.358-1.223z"/><path fill="#29608C" d="M125.968 68.693l2.028 3.618 1.359-1.223zM129.222 69.575l2.028 3.618 1.358-1.223zM124.783 76.566l2.028 3.618 1.358-1.224zM124.27 73.76l2.028 3.619 1.359-1.223z"/><path fill="#23567E" d="M147.826 56.09l1.954 3.412 1.235-1.112zM142.846 62.48l1.954 3.412 1.235-1.112z"/><path fill="#29608C" d="M124.992 69.844l2.284 12.098 9.509-8.562z"/><path fill="#275B85" d="M137.88 60.69l2.62 3.902.987-.89z"/><path fill="#275B85" d="M136.137 63.348l-.352 10.66 10.99-9.895z"/><path fill="#275B85" d="M133.442 67.68l2.619 3.903.988-.89zM134.088 64.921l2.619 3.903.988-.89z"/><path fill="#275B85" d="M134.582 64.477l2.619 3.902.988-.89zM136.892 61.58l2.62 3.902.987-.89z"/><path fill="#23567E" d="M142.85 59.753l1.955 3.412 1.235-1.112z"/><path fill="#23567E" d="M142.791 58.446l1.954 3.412 1.235-1.112zM144.473 55.843l1.954 3.412 1.235-1.112zM146.802 56.195l1.954 3.412 1.235-1.112z"/><path fill="#23567E" d="M144.211 57.167l.724 8.875 8.027-7.227z"/></g><g fill="#E5FAFA"><path d="M142.854 17.501l-2.02 1.82 3.354 3.725 2.02-1.82zM138.409 21.504l-2.02 1.818 3.354 3.726 2.02-1.82zM133.965 25.505l-2.02 1.819 3.354 3.725 2.02-1.819zM129.52 29.507l-2.02 1.819 3.355 3.725 2.02-1.819zM125.076 33.508l-2.02 1.82 3.355 3.724 2.02-1.818zM120.631 37.51l-2.02 1.82 3.355 3.725 2.02-1.82zM116.187 41.512l-2.02 1.819 3.355 3.725 2.02-1.819zM111.743 45.514l-2.02 1.819 3.354 3.725 2.02-1.819zM107.298 49.516l-2.02 1.819 3.354 3.725 2.02-1.819zM102.854 53.517l-2.02 1.82 3.354 3.724 2.02-1.818zM98.409 57.52l-2.02 1.818 3.355 3.726 2.02-1.82zM93.965 61.52l-2.02 1.82 3.355 3.725 2.02-1.819zM89.52 65.523l-2.02 1.819 3.355 3.725 2.02-1.819zM85.076 69.524l-2.02 1.819 3.355 3.725 2.02-1.818zM80.632 73.526l-2.02 1.82 3.354 3.724 2.02-1.818zM76.188 77.528l-2.02 1.819 3.354 3.725 2.02-1.819zM71.743 81.53l-2.02 1.819 3.354 3.725 2.02-1.819zM67.298 85.532l-2.02 1.819 3.355 3.725 2.02-1.819zM62.854 89.533l-2.02 1.82 3.355 3.724 2.02-1.818zM58.41 93.535l-2.02 1.82 3.354 3.725 2.02-1.82zM53.965 97.537l-2.02 1.819 3.355 3.725 2.02-1.819zM49.52 101.539l-2.02 1.819 3.355 3.725 2.02-1.819zM45.077 105.54l-2.02 1.819 3.354 3.725 2.02-1.818zM40.632 109.542l-2.02 1.82 3.354 3.724 2.02-1.818zM36.187 113.544l-2.02 1.82 3.354 3.725 2.02-1.82zM31.743 117.546l-2.02 1.819 3.354 3.725 2.02-1.819zM27.298 121.548l-2.02 1.819 3.355 3.725 2.02-1.819z"/></g><g fill="#E5FAFA"><path d="M170.392 48.086l-2.02 1.82 3.355 3.725 2.02-1.82zM165.948 52.089l-2.02 1.818 3.354 3.726 2.02-1.82zM161.504 56.09l-2.02 1.819 3.354 3.725 2.02-1.819zM157.059 60.092l-2.02 1.819 3.354 3.725 2.02-1.819zM152.615 64.093l-2.02 1.82 3.354 3.724 2.02-1.818zM148.17 68.095l-2.02 1.82 3.355 3.725 2.02-1.82zM143.726 72.097l-2.02 1.819 3.355 3.725 2.02-1.819zM139.281 76.099l-2.02 1.819 3.355 3.725 2.02-1.819zM134.837 80.101l-2.02 1.819 3.354 3.725 2.02-1.819zM130.393 84.102l-2.02 1.82 3.354 3.724 2.02-1.818zM125.948 88.104l-2.02 1.82 3.354 3.725 2.02-1.82zM121.504 92.106l-2.02 1.819 3.354 3.725 2.02-1.819zM117.06 96.108l-2.02 1.819 3.354 3.725 2.02-1.819zM112.615 100.11l-2.02 1.818 3.355 3.725 2.02-1.818zM108.17 104.111l-2.02 1.82 3.355 3.725 2.02-1.82zM103.726 108.113l-2.02 1.819 3.355 3.725 2.02-1.819zM99.282 112.115l-2.02 1.819 3.354 3.725 2.02-1.819zM94.837 116.117l-2.02 1.819 3.354 3.725 2.02-1.819zM90.393 120.118l-2.02 1.82 3.354 3.724 2.02-1.818zM85.948 124.12l-2.02 1.82 3.355 3.725 2.02-1.82zM81.504 128.122l-2.02 1.819 3.355 3.725 2.02-1.819zM77.06 132.124l-2.02 1.819 3.354 3.725 2.02-1.819zM72.615 136.125l-2.02 1.819 3.355 3.725 2.02-1.818zM68.17 140.127l-2.02 1.82 3.355 3.724 2.02-1.818zM63.726 144.13l-2.02 1.818 3.354 3.726 2.02-1.82zM59.282 148.13l-2.02 1.82 3.354 3.725 2.02-1.819zM54.837 152.133l-2.02 1.819 3.355 3.725 2.02-1.819z"/></g><g><path fill="url(#a)" d="M.698 0H18.64v31.922H.698z" transform="scale(-1 1) rotate(42 -173.832 2.333)"/><g transform="scale(-1 1) rotate(42 -185.698 6.54)"><ellipse fill="#224E6F" cx=".816" cy="1.979" rx="1" ry="1.979"/><path d="M.285 3.482C.46 3.12.571 2.58.571 1.98.57 1.377.46.838.285.475.428.179.613 0 .815 0c.45 0 .816.886.816 1.979 0 1.092-.365 1.978-.815 1.978-.203 0-.388-.179-.53-.475z" fill="#E0FFFF"/></g><path fill="#4F89BA" d="M40.034 124.884l-.052 1 2.04.106.051-.999z"/><path fill="#DBF0F0" d="M45.693 128.011l.522 1.473 1.41.673-.522-1.473zM34.432 128.26l.522 1.472 1.41.673-.522-1.472z"/><path fill="#061C2E" d="M36.955 136.997l-.053.999 2.04.107.052-.999z"/><path fill="#4F89BA" d="M33.706 132.505l-.052.999 2.039.107.052-.999z"/><path fill="#061C2E" d="M50.2 132.764l-.053.999 2.04.107.052-.999z"/><path fill="#4F89BA" d="M46.92 133.795l-.052.998 2.039.107.052-.998zM42.17 122.962l-.053.999 2.04.107.052-1z"/><path fill="#061C2E" d="M46.652 125.794l-.052.998 2.039.107.052-.999z"/><path fill="#DBF0F0" d="M43.6 120.004l.523 1.473 1.41.673-.522-1.472z"/><path fill="#4F89BA" d="M49.717 127.43l-.052.998 2.04.107.052-.999zM51.737 130.557l-.052.999 2.039.106.052-.998z"/><path fill="#061C2E" d="M42.434 129.317l-.052 1 2.039.106.052-.999z"/><path fill="#DBF0F0" d="M43.45 133.602l.522 1.473 1.41.673-.522-1.473z"/><path fill="#4F89BA" d="M38.197 129.285l-.052.998 2.039.107.052-.998zM41.317 136.917l-.053.998 2.04.107.052-.998zM41.848 140.285l-.053.998 2.04.107.052-.998z"/><path fill="#061C2E" d="M37.787 133.502l-.052.998 2.039.107.052-.999z"/><g><path d="M59.905 136.635l-6.385-3.257 1.007 3.587-5.823-4.508 1.767 3.667-6.681-4.358 2.42 6.43-5.57-2.521 1.433 4.139-4.56-1.323 13.1 14.549 13.289-11.966-2.016-2.239-1.98-2.2z" fill="#215178"/><path fill="#29608C" d="M44.695 143.346l2.382 3.338.689-.62zM43.651 140.173l2.383 3.338.688-.62z"/><path fill="#29608C" d="M45.39 141.349l2.383 3.338.688-.62zM47.988 142.849l2.382 3.338.689-.62zM46.483 147.22l2.382 3.338.688-.62zM45.41 144.895l2.382 3.339.689-.62z"/><path fill="#23567E" d="M58.23 136.916l2.278 3.158.626-.563zM56.18 140.681l2.278 3.159.626-.564z"/><path fill="#29608C" d="M44.963 142.008l4.68 10.043 4.82-4.34z"/><path fill="#275B85" d="M52.106 138.044l2.885 3.708.5-.451z"/><path fill="#275B85" d="M51.493 139.692l2.395 8.262 5.571-5.016z"/><path fill="#275B85" d="M50.6 142.415l2.886 3.708.5-.451zM50.386 140.415l2.886 3.707.5-.45z"/><path fill="#275B85" d="M50.637 140.19l2.885 3.707.5-.45zM51.605 138.495l2.885 3.708.501-.451z"/><path fill="#23567E" d="M55.506 138.547l2.277 3.158.626-.563z"/><path fill="#23567E" d="M55.137 137.508l2.277 3.159.626-.564zM55.718 135.888l2.278 3.158.626-.563zM57.509 136.743l2.277 3.159.626-.564z"/><path fill="#23567E" d="M55.857 136.86l2.737 7.131 4.069-3.664z"/></g></g><g><path fill="url(#b)" d="M.231 0h31.637v31.758H.231z" transform="scale(-1 1) rotate(42 -134.356 -100.506)"/><g fill="#FFF"><path d="M89.727 89.606c-1.65.41-2.55 2.3-1.421 2.584.312.079.496-.258.8-.233l.787.32c2.506.205-.715-.316.57-.527.263-.043 1.082.522.932-.21-.58-2.839-.033 1.255-.794-.666-.458-1.155.629-1.258-1.08-1.272M90.066 81.38c-.945-1.05-2.525.091-2.86.594-.134.2.475.54.493.82.021.322-.397.427-.392.745.005.3 1.134 1.97 1.298 2.152.048.053.126.03.181.021l.698-.523c.384-.067.91.304 1.266.18.567-.198 1.192-.768 1.387-1.055.095-.14-.214-.432-.177-.612.091-.455.46-.747.544-1.207.021-.119-.138-.284-.26-.364-.982-.643-.356-1.79-2.334-1.045M97.935 76.784c-.365.287-.58 1.198-1.096.86l.131.308c-.197-.13-.285-.424-.487-.541-.78-.453-2.931.465-3.121 1.204-.032.123.136.29.247.408l.73.325c.19.2.056.577.277.733 1.863 1.32.42-.21 1.341-.054.38.065.792.514 1.145.477.364-.039.388-.62.745-.676l.66.11c.137-.022.238-.133.286-.26.064-.164-.006-.394.032-.573l1.014-.846c.15-.688-1.224-1.655-1.645-1.44l-.259-.035zM103.276 69.06c-1.88-2.158-1.354-.203-2.552 0-2.338.396-.216-1.09-1.847-.26-1.574.802-.273.546-.522 1.402-.113.392-1.221.886-.735 1.639.102.16.363.224.416.394.081.265-.154.468-.07.733.337 1.048.584.141.956.33.249.125.846 1.218 1.321 1.094.427-.112.583-.63.993-.77 3.536-1.207-2.44 1.85 1.25.137a.853.853 0 0 0 .408-.399c.13-.267 0-.724.224-.903 1.088-.877.987.663 1.63-.616.49-.972-.448-.162-.433-1.02.018-1.013.863-1.211-.654-1.691l-.385-.07z"/></g><g fill="#2E8B57"><path d="M115.008 80.437l2.534 3.246.429-.387z"/><path d="M115.008 80.437l2.534 3.246.429-.387zM109.856 79.547l2.535 3.246.429-.386zM110.285 79.16l2.535 3.247.429-.387zM112.346 80.07l2.534 3.245.43-.386z"/><path d="M112.604 79.837l2.534 3.246.429-.386zM114.579 80.823l2.534 3.246.429-.386z"/><path d="M119.223 83.63l-7.512-2.315.723 4.082-5.689-2.187 1.05 5.803-5.636-1.674-.162 5.138-4.17-1.237.689 5.4-5.851-2.305.885 3.333-7.385-3.297 13.168 14.624 23.597-21.247-1.708-1.897z"/><path d="M107.936 82.764l1.914 3.592 1.459-1.313zM110.393 82.04l1.913 3.593 1.459-1.313zM111.303 79.946l1.913 3.592 1.46-1.314zM114.215 80.937l1.914 3.592 1.459-1.313z"/><path d="M105.79 81.933l1.914 3.592 1.458-1.313z"/><path d="M105.738 83.255l1.913 3.593 1.46-1.314z"/><path d="M105.705 84.773l1.914 3.592 1.459-1.314zM100.438 88.24l1.913 3.592 1.46-1.313zM102.86 86.272l1.914 3.592 1.459-1.314z"/><path d="M104.815 87.063l1.914 3.592 1.459-1.314zM98.187 90.054l1.914 3.592 1.458-1.313zM96.644 94.208l1.914 3.592 1.458-1.314z"/><path d="M96.728 91.368l1.914 3.592 1.459-1.314zM100.643 89.331l1.914 3.592 1.458-1.313zM93.81 93.994l1.915 3.593 1.458-1.314zM91.718 94.603l1.914 3.593 1.458-1.314z"/><path d="M92.338 94.257l1.914 3.592 1.459-1.313zM89.539 95.29l1.914 3.592 1.458-1.314z"/><path d="M86.864 93.871l1.913 3.593 1.46-1.314z"/></g></g><g><path fill="url(#c)" d="M1.044 0h33.498v28.587H1.044z" transform="scale(-1 1) rotate(42 -153.307 -51.135)"/><g transform="scale(-1 1) rotate(42 -184.128 -33.491)" fill="url(#d)"><ellipse opacity=".5" cx="7.41" cy="7.532" rx="7.41" ry="7.532"/><ellipse cx="7.487" cy="7.532" rx="6.561" ry="6.839"/></g><g transform="scale(-1 1) rotate(42 -155.689 -49.28)"><ellipse fill="#F2CB89" cx="13.702" cy="5.627" rx="1" ry="1"/><ellipse fill="#F2CB89" cx="16.326" cy="8.923" rx="1" ry="1"/><ellipse fill="#F2CB89" cx="8.454" cy="12.045" rx="1" ry="1"/><ellipse fill="#F2CB89" cx="3.051" cy="10.484" rx="1" ry="1"/><ellipse fill="#F2CB89" cx="3.051" cy="5.107" rx="1" ry="1"/><ellipse fill="#F2CB89" cx="29.602" cy="6.321" rx="1" ry="1"/><ellipse fill="#F2CB89" cx="23.582" cy="8.923" rx="1" ry="1"/><ellipse fill="#F2CB89" cx="26.669" cy="10.484" rx="1" ry="1"/><ellipse fill="#F2CB89" cx="19.105" cy="13.086" rx="1" ry="1"/><ellipse fill="#F2CB89" cx=".735" cy=".77" rx="1" ry="1"/><ellipse fill="#F2CB89" cx="26.669" cy="2.678" rx="1" ry="1"/><ellipse fill="#97C6CB" cx="6.524" cy="5.107" rx="1" ry="1"/><ellipse fill="#97C6CB" cx="10.383" cy="1.985" rx="1" ry="1"/><ellipse fill="#97C6CB" cx="13.779" cy="2.332" rx="1" ry="1"/><ellipse fill="#97C6CB" cx="17.638" cy="4.587" rx="1" ry="1"/><ellipse fill="#97C6CB" cx="19.954" cy="9.27" rx="1" ry="1"/><ellipse fill="#97C6CB" cx="27.827" cy="7.709" rx="1" ry="1"/><ellipse fill="#97C6CB" cx="30.914" cy="10.484" rx="1" ry="1"/><ellipse fill="#97C6CB" cx="30.605" cy="1.985" rx="1" ry="1"/><ellipse fill="#97C6CB" cx="5.443" cy=".77" rx="1" ry="1"/><ellipse fill="#97C6CB" cx="10.537" cy="7.882" rx="1" ry="1"/><ellipse fill="#97C6CB" cx="6.524" cy="9.27" rx="1" ry="1"/><ellipse fill="#97C6CB" cx="4.826" cy="13.086" rx="1" ry="1"/><ellipse fill="#97C6CB" cx=".967" cy="7.535" rx="1" ry="1"/><ellipse fill="#97C6CB" cx="24.894" cy="5.801" rx="1" ry="1"/><ellipse fill="#97C6CB" cx="20.88" cy="2.332" rx="1" ry="1"/></g><g transform="scale(-1 1) rotate(42 -180.064 -61.406)"><path d="M11.284 7.168c1.159.15 2.145-1.82 4.193-3.147.407-.263 1.263-.263 2.567 0 1.501 1.93 2.868 3.328 4.1 4.194 1.233.867 1.855.867 1.867 0-.673-.171-.42-.52.762-1.047 1.182-.527 2.641-1.02 4.378-1.479l5.292 2.526v3.296H1.122c.008-2.091.008-3.539 0-4.343-.014-1.404-.182-2.615 0-3.147.09-.264.006-.69 0-1.167-.006-.48.065-1.014 0-1.5C1.027.645.774 0 1.122.003c3.481 2.682 6.814 6.73 10.162 7.164z" fill="#DB9C72"/><ellipse fill="url(#e)" transform="rotate(45 5.217 6.34)" cx="5.217" cy="6.34" rx="4.358" ry="2.493"/><ellipse fill="url(#f)" cx="16.528" cy="8.413" rx="4.173" ry="2.655"/></g><path d="M83.452 113.465c-1.605.469-2.088 3.801-1.448 9.997-3.384-1.067-5.807-1.154-7.272-.26-2.197 1.34-.973 4.97-3.886 7.068-1.941 1.398-4.13 1.55-6.565.457l4.948 5.496 21.342-19.217c.199-.734.58-1.077 1.143-1.029-3.616-1.3-6.386-3.059-8.262-2.512z" fill="#D79D73"/></g><g><path fill="url(#c)" d="M1.534 0h13.818v28.587H1.534z" transform="scale(-1 1) rotate(42 -101.938 -185.04)"/><g transform="scale(-1 1) rotate(42 -127.517 -181.051)" fill="url(#d)"><ellipse opacity=".5" cx="3.056" cy="7.532" rx="3.056" ry="7.532"/><ellipse cx="3.088" cy="7.532" rx="2.706" ry="6.839"/></g><g transform="scale(-1 1) rotate(42 -104.202 -183.492)"><ellipse fill="#F2CB89" cx="5.903" cy="5.627" rx="1" ry="1"/><ellipse fill="#F2CB89" cx="6.985" cy="8.923" rx="1" ry="1"/><ellipse fill="#F2CB89" cx="3.738" cy="12.045" rx="1" ry="1"/><ellipse fill="#F2CB89" cx="1.509" cy="10.484" rx="1" ry="1"/><ellipse fill="#F2CB89" cx="1.509" cy="5.107" rx="1" ry="1"/><ellipse fill="#F2CB89" cx="12.461" cy="6.321" rx="1" ry="1"/><ellipse fill="#F2CB89" cx="9.978" cy="8.923" rx="1" ry="1"/><ellipse fill="#F2CB89" cx="11.251" cy="10.484" rx="1" ry="1"/><ellipse fill="#F2CB89" cx="8.131" cy="13.086" rx="1" ry="1"/><ellipse fill="#F2CB89" cx=".554" cy=".77" rx="1" ry="1"/><ellipse fill="#F2CB89" cx="11.251" cy="2.678" rx="1" ry="1"/><ellipse fill="#97C6CB" cx="2.942" cy="5.107" rx="1" ry="1"/><ellipse fill="#97C6CB" cx="4.534" cy="1.985" rx="1" ry="1"/><ellipse fill="#97C6CB" cx="5.934" cy="2.332" rx="1" ry="1"/><ellipse fill="#97C6CB" cx="7.526" cy="4.587" rx="1" ry="1"/><ellipse fill="#97C6CB" cx="8.482" cy="9.27" rx="1" ry="1"/><ellipse fill="#97C6CB" cx="11.729" cy="7.709" rx="1" ry="1"/><ellipse fill="#97C6CB" cx="13.003" cy="10.484" rx="1" ry="1"/><ellipse fill="#97C6CB" cx="12.875" cy="1.985" rx="1" ry="1"/><ellipse fill="#97C6CB" cx="2.496" cy=".77" rx="1" ry="1"/><ellipse fill="#97C6CB" cx="4.597" cy="7.882" rx="1" ry="1"/><ellipse fill="#97C6CB" cx="2.942" cy="9.27" rx="1" ry="1"/><ellipse fill="#97C6CB" cx="2.241" cy="13.086" rx="1" ry="1"/><ellipse fill="#97C6CB" cx=".649" cy="7.535" rx="1" ry="1"/><ellipse fill="#97C6CB" cx="10.519" cy="5.801" rx="1" ry="1"/><ellipse fill="#97C6CB" cx="8.864" cy="2.332" rx="1" ry="1"/></g><g transform="scale(-1 1) rotate(42 -128.695 -195.31)"><path d="M5.758 7.168c.478.15.885-1.82 1.73-3.147.168-.263.52-.263 1.059 0 .619 1.93 1.183 3.328 1.69 4.194.51.867.766.867.771 0-.278-.171-.173-.52.314-1.047a9.189 9.189 0 0 1 1.806-1.479l2.183 2.526v3.296H1.566c.003-2.091.003-3.539 0-4.343-.005-1.404-.075-2.615 0-3.147.038-.264.003-.69 0-1.167-.002-.48.027-1.014 0-1.5-.039-.708-.143-1.354 0-1.35 1.436 2.682 2.811 6.73 4.192 7.164z" fill="#DB9C72"/><ellipse fill="url(#e)" transform="rotate(45 3.256 6.34)" cx="3.256" cy="6.34" rx="1.798" ry="2.493"/><ellipse fill="url(#f)" cx="7.921" cy="8.413" rx="1.722" ry="2.655"/></g><path d="M162.856 42c-.948-.124-.3 2.19 1.941 6.944-2.597-1.775-4.26-2.548-4.988-2.317-1.093.346.794 3.379-.56 4.074-.903.463-2.337-.064-4.302-1.58l4.948 5.494 8.804-7.926c-.08-.484.077-.625.471-.425-2.823-2.015-5.207-4.12-6.314-4.264z" fill="#D79D73"/></g><g><path fill="#00CED1" d="M65.81 13.352l117.896 109.94-6.297 6.753L59.512 20.105zM37.742 43.451l117.896 109.94-6.297 6.754L31.444 50.205z"/><path fill="#00CED1" d="M76.032 33.322L50.818 60.36l-5.21-4.858 25.215-27.04zM107.246 62.429L82.032 89.467l-5.21-4.857 25.215-27.04zM134.951 89.719l-24.843 26.64-5.21-4.857 24.844-26.641zM164.575 117.342l-24.843 26.641-5.21-4.858 24.844-26.64z"/><path fill="url(#a)" d="M0 0h35.394v31.758H0z" transform="rotate(43 -6.365 112.508)"/><g transform="rotate(43 -20.08 121.724)"><ellipse fill="#224E6F" cx="1.662" cy="2.023" rx="1.662" ry="2.023"/><path d="M.582 3.56c.356-.37.581-.922.581-1.537C1.163 1.408.938.857.582.486.872.183 1.249 0 1.662 0c.917 0 1.661.906 1.661 2.023S2.58 4.046 1.662 4.046c-.413 0-.79-.183-1.08-.486z" fill="#E0FFFF"/></g><path fill="#4F89BA" d="M81.91 46.144l.058 1.66-2.022.071-.058-1.66z"/><path fill="#DBF0F0" d="M75.058 48.43l-.116 1.848-1.835.245.116-1.848zM92.299 54.551l-.116 1.847-1.835.245.116-1.847z"/><path fill="#061C2E" d="M92.167 65.113l.058 1.661-2.022.07-.058-1.66z"/><path fill="#4F89BA" d="M95.041 60.326l.058 1.66-2.021.071-.058-1.66z"/><path fill="#061C2E" d="M70.074 52.256l.058 1.66-2.021.072-.058-1.661z"/><path fill="#4F89BA" d="M75.537 55.413l.058 1.661-2.022.07-.058-1.66zM77.778 42.29l.058 1.662-2.022.07-.058-1.66z"/><path fill="#061C2E" d="M72.263 44.062l.058 1.661-2.022.071-.058-1.661z"/><path fill="#DBF0F0" d="M74.556 38.005l-.117 1.847-1.834.245.116-1.847z"/><path fill="#4F89BA" d="M68.353 44.843l.058 1.661-2.021.07-.058-1.66zM66.721 48.3l.058 1.66-2.022.07-.058-1.66z"/><path fill="#061C2E" d="M80.3 51.28l.058 1.662-2.022.07-.058-1.66z"/><path fill="#DBF0F0" d="M81.042 57.607l-.116 1.847-1.835.245.117-1.847z"/><path fill="#4F89BA" d="M86.728 53.402l.058 1.661-2.022.07-.058-1.66zM85.496 62.764l.058 1.661-2.022.07-.058-1.66zM86.238 67.329l.058 1.66-2.022.071-.058-1.66z"/><path fill="#061C2E" d="M89.293 59.667l.058 1.661-2.022.07-.058-1.66z"/><g><path d="M57.434 53.425l8.233-1.409s.04 1.55.123 4.648l6.798-3.498-1 4.371 8.175-2.84-.718 8.015 7.328-.77-.271 5.224 6.344.44L79.19 81.82l-25.8-24.06 2.04-2.187 2.004-2.15z" fill="#215178"/><path fill="#29608C" d="M83.735 70.905l-2.09 3.582-1.337-1.247zM83.86 66.873l-2.09 3.582-1.337-1.247z"/><path fill="#29608C" d="M81.751 67.672l-2.09 3.582-1.337-1.247zM78.483 68.496l-2.09 3.583-1.337-1.247zM82.799 75.564l-2.09 3.582-1.337-1.247zM83.36 72.768l-2.09 3.582-1.337-1.246z"/><path fill="#23567E" d="M60.117 54.69l-2.013 3.377-1.216-1.134zM64.985 61.164l-2.013 3.378-1.216-1.133z"/><path fill="#29608C" d="M82.707 68.84l-2.495 12.056-9.357-8.726z"/><path fill="#275B85" d="M69.981 59.462l-2.687 3.856-.972-.907z"/><path fill="#275B85" d="M71.677 62.15l.166 10.665-10.816-10.086z"/><path fill="#275B85" d="M74.297 66.529l-2.687 3.856-.972-.907zM73.7 63.759l-2.688 3.856-.972-.907z"/><path fill="#275B85" d="M73.213 63.305l-2.687 3.856-.972-.906zM70.953 60.368l-2.687 3.856-.972-.906z"/><path fill="#23567E" d="M65.028 58.438l-2.014 3.378-1.215-1.133z"/><path fill="#23567E" d="M65.11 57.132l-2.014 3.378-1.215-1.134zM63.474 54.5l-2.013 3.378-1.216-1.133zM61.139 54.812l-2.014 3.377-1.215-1.133z"/><path fill="#23567E" d="M63.712 55.829l-.878 8.86-7.9-7.365z"/></g><g fill="#E5FAFA"><path d="M65.762 16.193l1.988 1.854-3.419 3.666-1.988-1.854zM70.136 20.272l1.988 1.854-3.419 3.666-1.987-1.854zM74.51 24.35l1.988 1.854-3.42 3.666-1.987-1.853zM78.884 28.43l1.988 1.853-3.419 3.666-1.988-1.853zM83.258 32.508l1.987 1.854-3.418 3.666-1.988-1.854zM87.632 36.587l1.988 1.854-3.42 3.666-1.987-1.854zM92.005 40.665l1.988 1.854-3.419 3.666-1.988-1.853zM96.38 44.744l1.987 1.854-3.419 3.666-1.987-1.853zM100.754 48.823l1.988 1.854-3.42 3.666-1.987-1.853zM105.127 52.902l1.988 1.853-3.419 3.667-1.988-1.854zM109.501 56.98l1.988 1.854-3.419 3.667-1.987-1.854zM113.875 61.06l1.988 1.853-3.42 3.666-1.987-1.854zM118.25 65.138l1.987 1.854-3.419 3.666-1.988-1.854zM122.623 69.216l1.988 1.854-3.42 3.666-1.987-1.853zM126.997 73.295l1.988 1.854-3.42 3.666-1.987-1.853zM131.37 77.374l1.988 1.854-3.419 3.666-1.987-1.854zM135.745 81.453l1.987 1.854-3.418 3.666-1.988-1.854zM140.119 85.532l1.988 1.854-3.42 3.666-1.987-1.854zM144.492 89.61l1.988 1.854-3.419 3.666-1.987-1.853zM148.867 93.69l1.987 1.853-3.418 3.666-1.988-1.853zM153.24 97.768l1.988 1.853-3.419 3.667-1.988-1.854zM157.614 101.847l1.988 1.853-3.419 3.667-1.988-1.854zM161.988 105.925l1.988 1.854-3.42 3.666-1.987-1.854zM166.362 110.004l1.988 1.854-3.419 3.666-1.988-1.854zM170.736 114.083l1.988 1.854-3.419 3.666-1.988-1.854zM175.11 118.161l1.988 1.854-3.42 3.666-1.987-1.853zM179.484 122.24l1.988 1.854-3.42 3.666-1.987-1.853z"/></g><g fill="#E5FAFA"><path d="M37.694 46.293l1.988 1.854-3.42 3.666-1.987-1.854zM42.068 50.372l1.988 1.854-3.42 3.666-1.987-1.854zM46.441 54.45l1.988 1.854-3.419 3.666-1.987-1.853zM50.816 58.53l1.987 1.853-3.418 3.666-1.988-1.853zM55.19 62.608l1.987 1.853-3.419 3.667-1.988-1.854zM59.563 66.687l1.988 1.853-3.419 3.667-1.988-1.854zM63.937 70.765l1.988 1.854-3.42 3.666-1.987-1.854zM68.311 74.844l1.988 1.854-3.419 3.666-1.988-1.854zM72.685 78.923l1.988 1.854-3.419 3.666-1.988-1.854zM77.059 83.001l1.988 1.854-3.42 3.666-1.987-1.853zM81.433 87.08l1.988 1.854-3.419 3.666-1.988-1.853zM85.807 91.159l1.987 1.853-3.419 3.667-1.987-1.854zM90.18 95.238l1.989 1.854-3.42 3.666-1.987-1.854zM94.554 99.316l1.988 1.854-3.419 3.666-1.988-1.854zM98.928 103.395l1.988 1.854-3.419 3.666-1.987-1.854zM103.302 107.474l1.988 1.853-3.42 3.667-1.987-1.854zM107.676 111.553l1.988 1.853-3.419 3.667-1.988-1.854zM112.05 115.632l1.988 1.853-3.419 3.667-1.987-1.854zM116.424 119.71l1.988 1.854-3.42 3.666-1.987-1.854zM120.798 123.789l1.988 1.854-3.419 3.666-1.988-1.854zM125.172 127.867l1.987 1.854-3.418 3.666-1.988-1.853zM129.546 131.946l1.988 1.854-3.42 3.666-1.987-1.853zM133.92 136.025l1.987 1.853-3.419 3.667-1.988-1.854zM138.294 140.104l1.987 1.853-3.418 3.667-1.988-1.854zM142.668 144.183l1.988 1.853-3.42 3.667-1.987-1.854zM147.041 148.261l1.988 1.854-3.419 3.666-1.988-1.854zM151.416 152.34l1.987 1.854-3.419 3.666-1.987-1.854z"/></g><g><path fill="url(#a)" d="M.698 0H18.64v31.922H.698z" transform="rotate(43 -67.045 266.552)"/><g transform="rotate(43 -78.684 270.565)"><ellipse fill="#224E6F" cx=".816" cy="1.979" rx="1" ry="1.979"/><path d="M.285 3.482C.46 3.12.571 2.58.571 1.98.57 1.377.46.838.285.475.428.179.613 0 .815 0c.45 0 .816.886.816 1.979 0 1.092-.365 1.978-.815 1.978-.203 0-.388-.179-.53-.475z" fill="#E0FFFF"/></g><path fill="#4F89BA" d="M166.692 125.354l.035 1-2.041.07-.035-.998z"/><path fill="#DBF0F0" d="M160.98 128.382l-.548 1.463-1.422.648.548-1.463zM172.234 128.827l-.548 1.463-1.421.648.547-1.463z"/><path fill="#061C2E" d="M169.56 137.519l.034 1-2.04.07-.035-.999z"/><path fill="#4F89BA" d="M172.886 133.084l.035 1-2.04.071-.036-1z"/><path fill="#061C2E" d="M156.39 133.055l.035 1-2.04.071-.035-1z"/><path fill="#4F89BA" d="M159.652 134.143l.034 1-2.04.07-.035-.999zM164.59 123.395l.035 1-2.04.07-.035-.999z"/><path fill="#061C2E" d="M160.059 126.148l.035.999-2.04.071-.036-1z"/><path fill="#DBF0F0" d="M163.211 120.413l-.548 1.463-1.421.648.547-1.463z"/><path fill="#4F89BA" d="M156.966 127.73l.035 1-2.041.07-.035-.999zM154.892 130.822l.035.999-2.041.071-.035-1z"/><path fill="#061C2E" d="M164.215 129.745l.035 1-2.04.07-.036-1z"/><path fill="#DBF0F0" d="M163.124 134.011l-.547 1.463-1.422.649.548-1.464z"/><path fill="#4F89BA" d="M168.452 129.786l.035 1-2.041.07-.035-.999zM165.2 137.362l.034 1-2.04.071-.035-1zM164.61 140.72l.035 1-2.041.071-.035-1z"/><path fill="#061C2E" d="M168.788 134.01l.035.999-2.04.07-.035-.999z"/><g><path d="M146.619 136.757l6.44-3.146-1.069 3.57 5.901-4.407-1.83 3.636 6.756-4.24-2.532 6.386 5.612-2.424-1.504 4.114 4.582-1.243-13.351 14.317-13.079-12.195 2.055-2.204 2.019-2.164z" fill="#215178"/><path fill="#29608C" d="M161.71 143.732l-2.44 3.296-.678-.632zM162.808 140.577l-2.44 3.296-.678-.631z"/><path fill="#29608C" d="M161.049 141.723l-2.44 3.296-.678-.632zM158.426 143.177l-2.44 3.296-.678-.632zM159.855 147.573l-2.44 3.297-.678-.632zM160.968 145.268l-2.44 3.296-.678-.631z"/><path fill="#23567E" d="M148.288 137.066l-2.332 3.118-.616-.574zM150.272 140.867l-2.332 3.118-.616-.575z"/><path fill="#29608C" d="M161.465 142.389l-4.854 9.96-4.744-4.424z"/><path fill="#275B85" d="M154.392 138.301l-2.95 3.657-.492-.46z"/><path fill="#275B85" d="M154.976 139.96l-2.539 8.219-5.482-5.113z"/><path fill="#275B85" d="M155.82 142.698l-2.949 3.657-.492-.46zM156.07 140.701l-2.95 3.657-.492-.46z"/><path fill="#275B85" d="M155.824 140.472l-2.95 3.656-.493-.46zM154.885 138.76l-2.95 3.658-.492-.46z"/><path fill="#23567E" d="M150.984 138.745l-2.332 3.118-.616-.575z"/><path fill="#23567E" d="M151.371 137.712l-2.332 3.119-.616-.575zM150.818 136.082l-2.332 3.119-.616-.575zM149.013 136.906l-2.332 3.119-.616-.575z"/><path fill="#23567E" d="M150.663 137.052l-2.862 7.082-4.004-3.734z"/></g></g><g><path fill="url(#b)" d="M.231 0h31.637v31.758H.231z" transform="rotate(43 -27.57 166.337)"/><g fill="#FFF"><path d="M117.622 89.214c1.643.44 2.51 2.344 1.376 2.608-.314.074-.491-.267-.796-.247l-.792.307c-2.51.16.72-.303-.56-.537-.263-.048-1.092.503-.93-.227.63-2.828.011 1.256.806-.652.478-1.147-.606-1.268 1.102-1.253M117.427 80.983c.963-1.033 2.523.136 2.85.644.13.202-.485.532-.508.811-.027.322.389.435.378.752-.01.3-1.168 1.95-1.335 2.129-.048.052-.126.029-.181.018l-.69-.535c-.382-.074-.914.288-1.268.157-.563-.207-1.178-.788-1.368-1.079-.093-.142.221-.428.188-.608-.084-.457-.448-.755-.523-1.217-.02-.119.143-.281.267-.36.993-.625.386-1.783 2.351-1.003M109.639 76.25c.36.293.558 1.208 1.08.88l-.135.305c.2-.126.292-.419.496-.532.788-.44 2.923.516 3.1 1.258.03.124-.141.288-.254.403l-.736.313c-.193.197-.066.576-.29.728-1.885 1.287-.415-.218-1.34-.077-.38.058-.8.5-1.153.456-.363-.045-.377-.626-.733-.689l-.661.098c-.137-.024-.236-.136-.283-.263-.06-.166.014-.394-.021-.574l-1-.864c-.136-.69 1.253-1.633 1.67-1.41l.26-.031zM104.433 68.435c1.918-2.126 1.358-.18 2.553.044 2.33.437.234-1.086 1.85-.227 1.56.829.265.55.498 1.41.107.394 1.205.907.707 1.652-.106.157-.368.217-.423.387-.086.263.146.47.056.733-.354 1.042-.586.132-.96.313-.252.122-.868 1.204-1.341 1.071-.424-.119-.571-.64-.98-.787-3.513-1.268 2.408 1.894-1.251.115a.853.853 0 0 1-.401-.405c-.125-.27.012-.724-.208-.908-1.073-.895-.999.646-1.62-.643-.472-.98.452-.154.451-1.014 0-1.012-.841-1.225.684-1.678l.385-.063z"/></g><g fill="#2E8B57"><path d="M92.505 79.605l-2.59 3.201-.422-.394z"/><path d="M92.505 79.605l-2.59 3.201-.422-.394zM97.672 78.805l-2.591 3.201-.422-.393zM97.25 78.411l-2.591 3.202-.422-.394zM95.173 79.284l-2.59 3.201-.423-.394z"/><path d="M94.92 79.047l-2.591 3.202-.422-.394zM92.928 79.998l-2.59 3.202-.423-.394z"/><path d="M88.235 82.725l7.551-2.184-.794 4.068 5.726-2.088-1.152 5.785 5.666-1.576.072 5.14 4.192-1.163-.784 5.387 5.89-2.204-.943 3.318 7.441-3.168-13.42 14.392-23.223-21.655 1.74-1.867z"/><path d="M99.535 82.055l-1.976 3.558-1.436-1.338zM97.092 81.29l-1.976 3.557-1.436-1.338zM96.218 79.178l-1.976 3.559-1.435-1.34zM93.289 80.12l-1.976 3.557-1.436-1.338z"/><path d="M101.696 81.262L99.72 84.82l-1.436-1.339z"/><path d="M101.725 82.585l-1.976 3.558-1.436-1.339z"/><path d="M101.73 84.103l-1.976 3.558-1.435-1.339zM106.937 87.661l-1.976 3.559-1.436-1.34zM104.55 85.65l-1.977 3.56-1.435-1.34z"/><path d="M102.58 86.408l-1.976 3.558-1.435-1.339zM109.156 89.514l-1.976 3.559-1.436-1.339zM110.626 93.694l-1.976 3.558-1.436-1.338zM110.591 90.853l-1.976 3.558-1.435-1.338zM106.713 88.748l-1.976 3.559-1.436-1.339zM113.462 93.53l-1.976 3.559-1.435-1.339zM115.545 94.176l-1.977 3.558-1.435-1.339z"/><path d="M114.93 93.819l-1.976 3.558-1.436-1.339zM117.711 94.9l-1.976 3.558-1.436-1.339z"/><path d="M120.41 93.529l-1.975 3.558-1.436-1.339z"/></g></g><g><path fill="url(#c)" d="M1.044 0h33.498v28.587H1.044z" transform="rotate(43 -46.52 214.448)"/><g transform="rotate(43 -76.807 231.437)" fill="url(#d)"><ellipse opacity=".5" cx="7.41" cy="7.532" rx="7.41" ry="7.532"/><ellipse cx="7.487" cy="7.532" rx="6.561" ry="6.839"/></g><g transform="rotate(43 -48.865 216.241)"><ellipse fill="#F2CB89" cx="13.702" cy="5.627" rx="1" ry="1"/><ellipse fill="#F2CB89" cx="16.326" cy="8.923" rx="1" ry="1"/><ellipse fill="#F2CB89" cx="8.454" cy="12.045" rx="1" ry="1"/><ellipse fill="#F2CB89" cx="3.051" cy="10.484" rx="1" ry="1"/><ellipse fill="#F2CB89" cx="3.051" cy="5.107" rx="1" ry="1"/><ellipse fill="#F2CB89" cx="29.602" cy="6.321" rx="1" ry="1"/><ellipse fill="#F2CB89" cx="23.582" cy="8.923" rx="1" ry="1"/><ellipse fill="#F2CB89" cx="26.669" cy="10.484" rx="1" ry="1"/><ellipse fill="#F2CB89" cx="19.105" cy="13.086" rx="1" ry="1"/><ellipse fill="#F2CB89" cx=".735" cy=".77" rx="1" ry="1"/><ellipse fill="#F2CB89" cx="26.669" cy="2.678" rx="1" ry="1"/><ellipse fill="#97C6CB" cx="6.524" cy="5.107" rx="1" ry="1"/><ellipse fill="#97C6CB" cx="10.383" cy="1.985" rx="1" ry="1"/><ellipse fill="#97C6CB" cx="13.779" cy="2.332" rx="1" ry="1"/><ellipse fill="#97C6CB" cx="17.638" cy="4.587" rx="1" ry="1"/><ellipse fill="#97C6CB" cx="19.954" cy="9.27" rx="1" ry="1"/><ellipse fill="#97C6CB" cx="27.827" cy="7.709" rx="1" ry="1"/><ellipse fill="#97C6CB" cx="30.914" cy="10.484" rx="1" ry="1"/><ellipse fill="#97C6CB" cx="30.605" cy="1.985" rx="1" ry="1"/><ellipse fill="#97C6CB" cx="5.443" cy=".77" rx="1" ry="1"/><ellipse fill="#97C6CB" cx="10.537" cy="7.882" rx="1" ry="1"/><ellipse fill="#97C6CB" cx="6.524" cy="9.27" rx="1" ry="1"/><ellipse fill="#97C6CB" cx="4.826" cy="13.086" rx="1" ry="1"/><ellipse fill="#97C6CB" cx=".967" cy="7.535" rx="1" ry="1"/><ellipse fill="#97C6CB" cx="24.894" cy="5.801" rx="1" ry="1"/><ellipse fill="#97C6CB" cx="20.88" cy="2.332" rx="1" ry="1"/></g><g transform="rotate(43 -72.595 204.178)"><path d="M11.284 7.168c1.159.15 2.145-1.82 4.193-3.147.407-.263 1.263-.263 2.567 0 1.501 1.93 2.868 3.328 4.1 4.194 1.233.867 1.855.867 1.867 0-.673-.171-.42-.52.762-1.047 1.182-.527 2.641-1.02 4.378-1.479l5.292 2.526v3.296H1.122c.008-2.091.008-3.539 0-4.343-.014-1.404-.182-2.615 0-3.147.09-.264.006-.69 0-1.167-.006-.48.065-1.014 0-1.5C1.027.645.774 0 1.122.003c3.481 2.682 6.814 6.73 10.162 7.164z" fill="#DB9C72"/><ellipse fill="url(#e)" transform="rotate(45 5.217 6.34)" cx="5.217" cy="6.34" rx="4.358" ry="2.493"/><ellipse fill="url(#f)" cx="16.528" cy="8.413" rx="4.173" ry="2.655"/></g><path d="M123.48 113.18c1.596.496 2.021 3.836 1.274 10.02 3.4-1.008 5.826-1.053 7.275-.134 2.173 1.379.886 4.987 3.761 7.135 1.917 1.432 4.102 1.622 6.557.572l-5.044 5.408-21.003-19.586c-.186-.738-.56-1.087-1.124-1.048 3.638-1.238 6.438-2.948 8.303-2.368z" fill="#D79D73"/></g><g><path fill="url(#c)" d="M1.534 0h13.818v28.587H1.534z" transform="rotate(43 4.849 83.958)"/><g transform="rotate(43 -20.195 87.64)" fill="url(#d)"><ellipse opacity=".5" cx="3.056" cy="7.532" rx="3.056" ry="7.532"/><ellipse cx="3.088" cy="7.532" rx="2.706" ry="6.839"/></g><g transform="rotate(43 2.622 85.452)"><ellipse fill="#F2CB89" cx="5.903" cy="5.627" rx="1" ry="1"/><ellipse fill="#F2CB89" cx="6.985" cy="8.923" rx="1" ry="1"/><ellipse fill="#F2CB89" cx="3.738" cy="12.045" rx="1" ry="1"/><ellipse fill="#F2CB89" cx="1.509" cy="10.484" rx="1" ry="1"/><ellipse fill="#F2CB89" cx="1.509" cy="5.107" rx="1" ry="1"/><ellipse fill="#F2CB89" cx="12.461" cy="6.321" rx="1" ry="1"/><ellipse fill="#F2CB89" cx="9.978" cy="8.923" rx="1" ry="1"/><ellipse fill="#F2CB89" cx="11.251" cy="10.484" rx="1" ry="1"/><ellipse fill="#F2CB89" cx="8.131" cy="13.086" rx="1" ry="1"/><ellipse fill="#F2CB89" cx=".554" cy=".77" rx="1" ry="1"/><ellipse fill="#F2CB89" cx="11.251" cy="2.678" rx="1" ry="1"/><ellipse fill="#97C6CB" cx="2.942" cy="5.107" rx="1" ry="1"/><ellipse fill="#97C6CB" cx="4.534" cy="1.985" rx="1" ry="1"/><ellipse fill="#97C6CB" cx="5.934" cy="2.332" rx="1" ry="1"/><ellipse fill="#97C6CB" cx="7.526" cy="4.587" rx="1" ry="1"/><ellipse fill="#97C6CB" cx="8.482" cy="9.27" rx="1" ry="1"/><ellipse fill="#97C6CB" cx="11.729" cy="7.709" rx="1" ry="1"/><ellipse fill="#97C6CB" cx="13.003" cy="10.484" rx="1" ry="1"/><ellipse fill="#97C6CB" cx="12.875" cy="1.985" rx="1" ry="1"/><ellipse fill="#97C6CB" cx="2.496" cy=".77" rx="1" ry="1"/><ellipse fill="#97C6CB" cx="4.597" cy="7.882" rx="1" ry="1"/><ellipse fill="#97C6CB" cx="2.942" cy="9.27" rx="1" ry="1"/><ellipse fill="#97C6CB" cx="2.241" cy="13.086" rx="1" ry="1"/><ellipse fill="#97C6CB" cx=".649" cy="7.535" rx="1" ry="1"/><ellipse fill="#97C6CB" cx="10.519" cy="5.801" rx="1" ry="1"/><ellipse fill="#97C6CB" cx="8.864" cy="2.332" rx="1" ry="1"/></g><g transform="rotate(43 -21.225 73.688)"><path d="M5.758 7.168c.478.15.885-1.82 1.73-3.147.168-.263.52-.263 1.059 0 .619 1.93 1.183 3.328 1.69 4.194.51.867.766.867.771 0-.278-.171-.173-.52.314-1.047a9.189 9.189 0 0 1 1.806-1.479l2.183 2.526v3.296H1.566c.003-2.091.003-3.539 0-4.343-.005-1.404-.075-2.615 0-3.147.038-.264.003-.69 0-1.167-.002-.48.027-1.014 0-1.5-.039-.708-.143-1.354 0-1.35 1.436 2.682 2.811 6.73 4.192 7.164z" fill="#DB9C72"/><ellipse fill="url(#e)" transform="rotate(45 3.256 6.34)" cx="3.256" cy="6.34" rx="1.798" ry="2.493"/><ellipse fill="url(#f)" cx="7.921" cy="8.413" rx="1.722" ry="2.655"/></g><path d="M45.336 40.338c.95-.107.262 2.196-2.063 6.91 2.628-1.73 4.304-2.473 5.028-2.23 1.086.365-.853 3.365.49 4.083.894.479 2.337-.023 4.327-1.505l-5.043 5.408-8.664-8.08c.09-.481-.065-.625-.463-.432 2.857-1.965 5.278-4.028 6.388-4.154z" fill="#D79D73"/></g></g><g fill="#00CED1" fill-opacity=".12"><ellipse cx="100" cy="88.288" rx="94.456" ry="83.63"/><ellipse cx="100" cy="88.5" rx="100" ry="88.5"/></g></g><g transform="translate(77 58)"><ellipse fill="#FFF" fill-rule="nonzero" cx="27.5" cy="24.5" rx="27.5" ry="24.5"/><path d="M39.316 16.263L15.254 34.427M14.395 15.418l26.21 19.854" stroke="#D0021B" stroke-width="8" stroke-linecap="square"/></g></g></svg>
